<svg version="1.1" viewBox="0.0 0.0 600.0 371.0" fill="none" stroke="none" stroke-linecap="square" stroke-miterlimit="10" width="600" height="371" xmlns:xlink="http://www.w3.org/1999/xlink" xmlns="http://www.w3.org/2000/svg"><path fill="#ffffff" d="M0 0L600.0 0L600.0 371.0L0 371.0L0 0Z" fill-rule="nonzero"/><path stroke="#333333" stroke-width="1.0" stroke-linecap="butt" d="M85.5 287.5L581.5 287.5" fill-rule="nonzero"/><path stroke="#cccccc" stroke-width="1.0" stroke-linecap="butt" d="M85.5 235.5L581.5 235.5" fill-rule="nonzero"/><path stroke="#cccccc" stroke-width="1.0" stroke-linecap="butt" d="M85.5 183.5L581.5 183.5" fill-rule="nonzero"/><path stroke="#cccccc" stroke-width="1.0" stroke-linecap="butt" d="M85.5 130.5L581.5 130.5" fill-rule="nonzero"/><path stroke="#cccccc" stroke-width="1.0" stroke-linecap="butt" d="M85.5 78.5L581.5 78.5" fill-rule="nonzero"/><path stroke="#cccccc" stroke-width="1.0" stroke-linecap="butt" d="M85.5 26.5L581.5 26.5" fill-rule="nonzero"/><clipPath id="id_0"><path d="M85.55 26.05L581.45 26.05L581.45 287.9548L85.55 287.9548L85.55 26.05Z" clip-rule="nonzero"/></clipPath><path stroke="#000000" stroke-width="0.0" stroke-linecap="butt" stroke-opacity="0.0" clip-path="url(#id_0)" d="M95.0 288.0L87.0 288.0L87.0 288.0L95.0 288.0Z" fill-rule="nonzero"/><path fill="#ff5a5f" clip-path="url(#id_0)" d="M95.0 288.0L87.0 288.0L87.0 288.0L95.0 288.0Z" fill-rule="nonzero"/><path stroke="#000000" stroke-width="0.0" stroke-linecap="butt" stroke-opacity="0.0" clip-path="url(#id_0)" d="M104.0 288.0L96.0 288.0L96.0 287.0C96.0 286.44772 96.447716 286.0 97.0 286.0L103.0 286.0C103.552284 286.0 104.0 286.44772 104.0 287.0Z" fill-rule="nonzero"/><path fill="#ff5a5f" clip-path="url(#id_0)" d="M104.0 288.0L96.0 288.0L96.0 287.0C96.0 286.44772 96.447716 286.0 97.0 286.0L103.0 286.0C103.552284 286.0 104.0 286.44772 104.0 287.0Z" fill-rule="nonzero"/><path stroke="#000000" stroke-width="0.0" stroke-linecap="butt" stroke-opacity="0.0" clip-path="url(#id_0)" d="M114.0 288.0L106.0 288.0L106.0 286.0C106.0 284.89542 106.89543 284.0 108.0 284.0L112.0 284.0C113.10457 284.0 114.0 284.89542 114.0 286.0Z" fill-rule="nonzero"/><path fill="#ff5a5f" clip-path="url(#id_0)" d="M114.0 288.0L106.0 288.0L106.0 286.0C106.0 284.89542 106.89543 284.0 108.0 284.0L112.0 284.0C113.10457 284.0 114.0 284.89542 114.0 286.0Z" fill-rule="nonzero"/><path stroke="#000000" stroke-width="0.0" stroke-linecap="butt" stroke-opacity="0.0" clip-path="url(#id_0)" d="M124.0 288.0L116.0 288.0L116.0 257.0C116.0 255.89543 116.89543 255.0 118.0 255.0L122.0 255.0C123.10457 255.0 124.0 255.89543 124.0 257.0Z" fill-rule="nonzero"/><path fill="#ff5a5f" clip-path="url(#id_0)" d="M124.0 288.0L116.0 288.0L116.0 257.0C116.0 255.89543 116.89543 255.0 118.0 255.0L122.0 255.0C123.10457 255.0 124.0 255.89543 124.0 257.0Z" fill-rule="nonzero"/><path stroke="#000000" stroke-width="0.0" stroke-linecap="butt" stroke-opacity="0.0" clip-path="url(#id_0)" d="M134.0 288.0L126.0 288.0L126.0 212.0C126.0 210.89543 126.89543 210.0 128.0 210.0L132.0 210.0C133.10457 210.0 134.0 210.89543 134.0 212.0Z" fill-rule="nonzero"/><path fill="#ff5a5f" clip-path="url(#id_0)" d="M134.0 288.0L126.0 288.0L126.0 212.0C126.0 210.89543 126.89543 210.0 128.0 210.0L132.0 210.0C133.10457 210.0 134.0 210.89543 134.0 212.0Z" fill-rule="nonzero"/><path stroke="#000000" stroke-width="0.0" stroke-linecap="butt" stroke-opacity="0.0" clip-path="url(#id_0)" d="M144.0 288.0L136.0 288.0L136.0 165.0C136.0 163.89543 136.89543 163.0 138.0 163.0L142.0 163.0C143.10457 163.0 144.0 163.89543 144.0 165.0Z" fill-rule="nonzero"/><path fill="#ff5a5f" clip-path="url(#id_0)" d="M144.0 288.0L136.0 288.0L136.0 165.0C136.0 163.89543 136.89543 163.0 138.0 163.0L142.0 163.0C143.10457 163.0 144.0 163.89543 144.0 165.0Z" fill-rule="nonzero"/><path stroke="#000000" stroke-width="0.0" stroke-linecap="butt" stroke-opacity="0.0" clip-path="url(#id_0)" d="M154.0 288.0L146.0 288.0L146.0 114.0C146.0 112.89543 146.89543 112.0 148.0 112.0L152.0 112.0C153.10457 112.0 154.0 112.89543 154.0 114.0Z" fill-rule="nonzero"/><path fill="#ff5a5f" clip-path="url(#id_0)" d="M154.0 288.0L146.0 288.0L146.0 114.0C146.0 112.89543 146.89543 112.0 148.0 112.0L152.0 112.0C153.10457 112.0 154.0 112.89543 154.0 114.0Z" fill-rule="nonzero"/><path stroke="#000000" stroke-width="0.0" stroke-linecap="butt" stroke-opacity="0.0" clip-path="url(#id_0)" d="M164.0 288.0L156.0 288.0L156.0 104.0C156.0 102.89543 156.89543 102.0 158.0 102.0L162.0 102.0C163.10457 102.0 164.0 102.89543 164.0 104.0Z" fill-rule="nonzero"/><path fill="#ff5a5f" clip-path="url(#id_0)" d="M164.0 288.0L156.0 288.0L156.0 104.0C156.0 102.89543 156.89543 102.0 158.0 102.0L162.0 102.0C163.10457 102.0 164.0 102.89543 164.0 104.0Z" fill-rule="nonzero"/><path stroke="#000000" stroke-width="0.0" stroke-linecap="butt" stroke-opacity="0.0" clip-path="url(#id_0)" d="M174.0 288.0L166.0 288.0L166.0 88.0C166.0 86.89543 166.89543 86.0 168.0 86.0L172.0 86.0C173.10457 86.0 174.0 86.89543 174.0 88.0Z" fill-rule="nonzero"/><path fill="#ff5a5f" clip-path="url(#id_0)" d="M174.0 288.0L166.0 288.0L166.0 88.0C166.0 86.89543 166.89543 86.0 168.0 86.0L172.0 86.0C173.10457 86.0 174.0 86.89543 174.0 88.0Z" fill-rule="nonzero"/><path stroke="#000000" stroke-width="0.0" stroke-linecap="butt" stroke-opacity="0.0" clip-path="url(#id_0)" d="M184.0 288.0L176.0 288.0L176.0 61.0C176.0 59.89543 176.89543 59.0 178.0 59.0L182.0 59.0C183.10457 59.0 184.0 59.89543 184.0 61.0Z" fill-rule="nonzero"/><path fill="#ff5a5f" clip-path="url(#id_0)" d="M184.0 288.0L176.0 288.0L176.0 61.0C176.0 59.89543 176.89543 59.0 178.0 59.0L182.0 59.0C183.10457 59.0 184.0 59.89543 184.0 61.0Z" fill-rule="nonzero"/><path stroke="#000000" stroke-width="0.0" stroke-linecap="butt" stroke-opacity="0.0" clip-path="url(#id_0)" d="M194.0 288.0L186.0 288.0L186.0 93.0C186.0 91.89543 186.89543 91.0 188.0 91.0L192.0 91.0C193.10457 91.0 194.0 91.89543 194.0 93.0Z" fill-rule="nonzero"/><path fill="#ff5a5f" clip-path="url(#id_0)" d="M194.0 288.0L186.0 288.0L186.0 93.0C186.0 91.89543 186.89543 91.0 188.0 91.0L192.0 91.0C193.10457 91.0 194.0 91.89543 194.0 93.0Z" fill-rule="nonzero"/><path stroke="#000000" stroke-width="0.0" stroke-linecap="butt" stroke-opacity="0.0" clip-path="url(#id_0)" d="M204.0 288.0L196.0 288.0L196.0 146.0C196.0 144.89543 196.89543 144.0 198.0 144.0L202.0 144.0C203.10457 144.0 204.0 144.89543 204.0 146.0Z" fill-rule="nonzero"/><path fill="#ff5a5f" clip-path="url(#id_0)" d="M204.0 288.0L196.0 288.0L196.0 146.0C196.0 144.89543 196.89543 144.0 198.0 144.0L202.0 144.0C203.10457 144.0 204.0 144.89543 204.0 146.0Z" fill-rule="nonzero"/><path stroke="#000000" stroke-width="0.0" stroke-linecap="butt" stroke-opacity="0.0" clip-path="url(#id_0)" d="M214.0 288.0L206.0 288.0L206.0 80.0C206.0 78.89543 206.89543 78.0 208.0 78.0L212.0 78.0C213.10457 78.0 214.0 78.89543 214.0 80.0Z" fill-rule="nonzero"/><path fill="#ff5a5f" clip-path="url(#id_0)" d="M214.0 288.0L206.0 288.0L206.0 80.0C206.0 78.89543 206.89543 78.0 208.0 78.0L212.0 78.0C213.10457 78.0 214.0 78.89543 214.0 80.0Z" fill-rule="nonzero"/><path stroke="#000000" stroke-width="0.0" stroke-linecap="butt" stroke-opacity="0.0" clip-path="url(#id_0)" d="M223.0 288.0L215.0 288.0L215.0 165.0C215.0 163.89543 215.89543 163.0 217.0 163.0L221.0 163.0C222.10457 163.0 223.0 163.89543 223.0 165.0Z" fill-rule="nonzero"/><path fill="#ff5a5f" clip-path="url(#id_0)" d="M223.0 288.0L215.0 288.0L215.0 165.0C215.0 163.89543 215.89543 163.0 217.0 163.0L221.0 163.0C222.10457 163.0 223.0 163.89543 223.0 165.0Z" fill-rule="nonzero"/><path stroke="#000000" stroke-width="0.0" stroke-linecap="butt" stroke-opacity="0.0" clip-path="url(#id_0)" d="M233.0 288.0L225.0 288.0L225.0 161.0C225.0 159.89543 225.89543 159.0 227.0 159.0L231.0 159.0C232.10457 159.0 233.0 159.89543 233.0 161.0Z" fill-rule="nonzero"/><path fill="#ff5a5f" clip-path="url(#id_0)" d="M233.0 288.0L225.0 288.0L225.0 161.0C225.0 159.89543 225.89543 159.0 227.0 159.0L231.0 159.0C232.10457 159.0 233.0 159.89543 233.0 161.0Z" fill-rule="nonzero"/><path stroke="#000000" stroke-width="0.0" stroke-linecap="butt" stroke-opacity="0.0" clip-path="url(#id_0)" d="M243.0 288.0L235.0 288.0L235.0 70.0C235.0 68.89543 235.89543 68.0 237.0 68.0L241.0 68.0C242.10457 68.0 243.0 68.89543 243.0 70.0Z" fill-rule="nonzero"/><path fill="#ff5a5f" clip-path="url(#id_0)" d="M243.0 288.0L235.0 288.0L235.0 70.0C235.0 68.89543 235.89543 68.0 237.0 68.0L241.0 68.0C242.10457 68.0 243.0 68.89543 243.0 70.0Z" fill-rule="nonzero"/><path stroke="#000000" stroke-width="0.0" stroke-linecap="butt" stroke-opacity="0.0" clip-path="url(#id_0)" d="M253.0 288.0L245.0 288.0L245.0 187.0C245.0 185.89543 245.89543 185.0 247.0 185.0L251.0 185.0C252.10457 185.0 253.0 185.89543 253.0 187.0Z" fill-rule="nonzero"/><path fill="#ff5a5f" clip-path="url(#id_0)" d="M253.0 288.0L245.0 288.0L245.0 187.0C245.0 185.89543 245.89543 185.0 247.0 185.0L251.0 185.0C252.10457 185.0 253.0 185.89543 253.0 187.0Z" fill-rule="nonzero"/><path stroke="#000000" stroke-width="0.0" stroke-linecap="butt" stroke-opacity="0.0" clip-path="url(#id_0)" d="M263.0 288.0L255.0 288.0L255.0 157.0C255.0 155.89543 255.89543 155.0 257.0 155.0L261.0 155.0C262.10458 155.0 263.0 155.89543 263.0 157.0Z" fill-rule="nonzero"/><path fill="#ff5a5f" clip-path="url(#id_0)" d="M263.0 288.0L255.0 288.0L255.0 157.0C255.0 155.89543 255.89543 155.0 257.0 155.0L261.0 155.0C262.10458 155.0 263.0 155.89543 263.0 157.0Z" fill-rule="nonzero"/><path stroke="#000000" stroke-width="0.0" stroke-linecap="butt" stroke-opacity="0.0" clip-path="url(#id_0)" d="M273.0 288.0L265.0 288.0L265.0 186.0C265.0 184.89543 265.89542 184.0 267.0 184.0L271.0 184.0C272.10458 184.0 273.0 184.89543 273.0 186.0Z" fill-rule="nonzero"/><path fill="#ff5a5f" clip-path="url(#id_0)" d="M273.0 288.0L265.0 288.0L265.0 186.0C265.0 184.89543 265.89542 184.0 267.0 184.0L271.0 184.0C272.10458 184.0 273.0 184.89543 273.0 186.0Z" fill-rule="nonzero"/><path stroke="#000000" stroke-width="0.0" stroke-linecap="butt" stroke-opacity="0.0" clip-path="url(#id_0)" d="M283.0 288.0L275.0 288.0L275.0 167.0C275.0 165.89543 275.89542 165.0 277.0 165.0L281.0 165.0C282.10458 165.0 283.0 165.89543 283.0 167.0Z" fill-rule="nonzero"/><path fill="#ff5a5f" clip-path="url(#id_0)" d="M283.0 288.0L275.0 288.0L275.0 167.0C275.0 165.89543 275.89542 165.0 277.0 165.0L281.0 165.0C282.10458 165.0 283.0 165.89543 283.0 167.0Z" fill-rule="nonzero"/><path stroke="#000000" stroke-width="0.0" stroke-linecap="butt" stroke-opacity="0.0" clip-path="url(#id_0)" d="M293.0 288.0L285.0 288.0L285.0 147.0C285.0 145.89543 285.89542 145.0 287.0 145.0L291.0 145.0C292.10458 145.0 293.0 145.89543 293.0 147.0Z" fill-rule="nonzero"/><path fill="#ff5a5f" clip-path="url(#id_0)" d="M293.0 288.0L285.0 288.0L285.0 147.0C285.0 145.89543 285.89542 145.0 287.0 145.0L291.0 145.0C292.10458 145.0 293.0 145.89543 293.0 147.0Z" fill-rule="nonzero"/><path stroke="#000000" stroke-width="0.0" stroke-linecap="butt" stroke-opacity="0.0" clip-path="url(#id_0)" d="M303.0 288.0L295.0 288.0L295.0 250.0C295.0 248.89543 295.89542 248.0 297.0 248.0L301.0 248.0C302.10458 248.0 303.0 248.89543 303.0 250.0Z" fill-rule="nonzero"/><path fill="#ff5a5f" clip-path="url(#id_0)" d="M303.0 288.0L295.0 288.0L295.0 250.0C295.0 248.89543 295.89542 248.0 297.0 248.0L301.0 248.0C302.10458 248.0 303.0 248.89543 303.0 250.0Z" fill-rule="nonzero"/><path stroke="#000000" stroke-width="0.0" stroke-linecap="butt" stroke-opacity="0.0" clip-path="url(#id_0)" d="M313.0 288.0L305.0 288.0L305.0 201.0C305.0 199.89543 305.89542 199.0 307.0 199.0L311.0 199.0C312.10458 199.0 313.0 199.89543 313.0 201.0Z" fill-rule="nonzero"/><path fill="#ff5a5f" clip-path="url(#id_0)" d="M313.0 288.0L305.0 288.0L305.0 201.0C305.0 199.89543 305.89542 199.0 307.0 199.0L311.0 199.0C312.10458 199.0 313.0 199.89543 313.0 201.0Z" fill-rule="nonzero"/><path stroke="#000000" stroke-width="0.0" stroke-linecap="butt" stroke-opacity="0.0" clip-path="url(#id_0)" d="M323.0 288.0L315.0 288.0L315.0 251.0C315.0 249.89543 315.89542 249.0 317.0 249.0L321.0 249.0C322.10458 249.0 323.0 249.89543 323.0 251.0Z" fill-rule="nonzero"/><path fill="#ff5a5f" clip-path="url(#id_0)" d="M323.0 288.0L315.0 288.0L315.0 251.0C315.0 249.89543 315.89542 249.0 317.0 249.0L321.0 249.0C322.10458 249.0 323.0 249.89543 323.0 251.0Z" fill-rule="nonzero"/><path stroke="#000000" stroke-width="0.0" stroke-linecap="butt" stroke-opacity="0.0" clip-path="url(#id_0)" d="M333.0 288.0L325.0 288.0L325.0 244.0C325.0 242.89543 325.89542 242.0 327.0 242.0L331.0 242.0C332.10458 242.0 333.0 242.89543 333.0 244.0Z" fill-rule="nonzero"/><path fill="#ff5a5f" clip-path="url(#id_0)" d="M333.0 288.0L325.0 288.0L325.0 244.0C325.0 242.89543 325.89542 242.0 327.0 242.0L331.0 242.0C332.10458 242.0 333.0 242.89543 333.0 244.0Z" fill-rule="nonzero"/><path stroke="#000000" stroke-width="0.0" stroke-linecap="butt" stroke-opacity="0.0" clip-path="url(#id_0)" d="M342.0 288.0L334.0 288.0L334.0 180.0C334.0 178.89543 334.89542 178.0 336.0 178.0L340.0 178.0C341.10458 178.0 342.0 178.89543 342.0 180.0Z" fill-rule="nonzero"/><path fill="#ff5a5f" clip-path="url(#id_0)" d="M342.0 288.0L334.0 288.0L334.0 180.0C334.0 178.89543 334.89542 178.0 336.0 178.0L340.0 178.0C341.10458 178.0 342.0 178.89543 342.0 180.0Z" fill-rule="nonzero"/><path stroke="#000000" stroke-width="0.0" stroke-linecap="butt" stroke-opacity="0.0" clip-path="url(#id_0)" d="M352.0 288.0L344.0 288.0L344.0 264.0C344.0 262.89542 344.89542 262.0 346.0 262.0L350.0 262.0C351.10458 262.0 352.0 262.89542 352.0 264.0Z" fill-rule="nonzero"/><path fill="#ff5a5f" clip-path="url(#id_0)" d="M352.0 288.0L344.0 288.0L344.0 264.0C344.0 262.89542 344.89542 262.0 346.0 262.0L350.0 262.0C351.10458 262.0 352.0 262.89542 352.0 264.0Z" fill-rule="nonzero"/><path stroke="#000000" stroke-width="0.0" stroke-linecap="butt" stroke-opacity="0.0" clip-path="url(#id_0)" d="M362.0 288.0L354.0 288.0L354.0 257.0C354.0 255.89543 354.89542 255.0 356.0 255.0L360.0 255.0C361.10458 255.0 362.0 255.89543 362.0 257.0Z" fill-rule="nonzero"/><path fill="#ff5a5f" clip-path="url(#id_0)" d="M362.0 288.0L354.0 288.0L354.0 257.0C354.0 255.89543 354.89542 255.0 356.0 255.0L360.0 255.0C361.10458 255.0 362.0 255.89543 362.0 257.0Z" fill-rule="nonzero"/><path stroke="#000000" stroke-width="0.0" stroke-linecap="butt" stroke-opacity="0.0" clip-path="url(#id_0)" d="M372.0 288.0L364.0 288.0L364.0 268.0C364.0 266.89542 364.89542 266.0 366.0 266.0L370.0 266.0C371.10458 266.0 372.0 266.89542 372.0 268.0Z" fill-rule="nonzero"/><path fill="#ff5a5f" clip-path="url(#id_0)" d="M372.0 288.0L364.0 288.0L364.0 268.0C364.0 266.89542 364.89542 266.0 366.0 266.0L370.0 266.0C371.10458 266.0 372.0 266.89542 372.0 268.0Z" fill-rule="nonzero"/><path stroke="#000000" stroke-width="0.0" stroke-linecap="butt" stroke-opacity="0.0" clip-path="url(#id_0)" d="M382.0 288.0L374.0 288.0L374.0 248.0C374.0 246.89543 374.89542 246.0 376.0 246.0L380.0 246.0C381.10458 246.0 382.0 246.89543 382.0 248.0Z" fill-rule="nonzero"/><path fill="#ff5a5f" clip-path="url(#id_0)" d="M382.0 288.0L374.0 288.0L374.0 248.0C374.0 246.89543 374.89542 246.0 376.0 246.0L380.0 246.0C381.10458 246.0 382.0 246.89543 382.0 248.0Z" fill-rule="nonzero"/><path stroke="#000000" stroke-width="0.0" stroke-linecap="butt" stroke-opacity="0.0" clip-path="url(#id_0)" d="M392.0 288.0L384.0 288.0L384.0 232.0C384.0 230.89543 384.89542 230.0 386.0 230.0L390.0 230.0C391.10458 230.0 392.0 230.89543 392.0 232.0Z" fill-rule="nonzero"/><path fill="#ff5a5f" clip-path="url(#id_0)" d="M392.0 288.0L384.0 288.0L384.0 232.0C384.0 230.89543 384.89542 230.0 386.0 230.0L390.0 230.0C391.10458 230.0 392.0 230.89543 392.0 232.0Z" fill-rule="nonzero"/><path stroke="#000000" stroke-width="0.0" stroke-linecap="butt" stroke-opacity="0.0" clip-path="url(#id_0)" d="M402.0 288.0L394.0 288.0L394.0 284.0C394.0 282.89542 394.89542 282.0 396.0 282.0L400.0 282.0C401.10458 282.0 402.0 282.89542 402.0 284.0Z" fill-rule="nonzero"/><path fill="#ff5a5f" clip-path="url(#id_0)" d="M402.0 288.0L394.0 288.0L394.0 284.0C394.0 282.89542 394.89542 282.0 396.0 282.0L400.0 282.0C401.10458 282.0 402.0 282.89542 402.0 284.0Z" fill-rule="nonzero"/><path stroke="#000000" stroke-width="0.0" stroke-linecap="butt" stroke-opacity="0.0" clip-path="url(#id_0)" d="M412.0 288.0L404.0 288.0L404.0 270.0C404.0 268.89542 404.89542 268.0 406.0 268.0L410.0 268.0C411.10458 268.0 412.0 268.89542 412.0 270.0Z" fill-rule="nonzero"/><path fill="#ff5a5f" clip-path="url(#id_0)" d="M412.0 288.0L404.0 288.0L404.0 270.0C404.0 268.89542 404.89542 268.0 406.0 268.0L410.0 268.0C411.10458 268.0 412.0 268.89542 412.0 270.0Z" fill-rule="nonzero"/><path stroke="#000000" stroke-width="0.0" stroke-linecap="butt" stroke-opacity="0.0" clip-path="url(#id_0)" d="M422.0 288.0L414.0 288.0L414.0 281.0C414.0 279.89542 414.89542 279.0 416.0 279.0L420.0 279.0C421.10458 279.0 422.0 279.89542 422.0 281.0Z" fill-rule="nonzero"/><path fill="#ff5a5f" clip-path="url(#id_0)" d="M422.0 288.0L414.0 288.0L414.0 281.0C414.0 279.89542 414.89542 279.0 416.0 279.0L420.0 279.0C421.10458 279.0 422.0 279.89542 422.0 281.0Z" fill-rule="nonzero"/><path stroke="#000000" stroke-width="0.0" stroke-linecap="butt" stroke-opacity="0.0" clip-path="url(#id_0)" d="M432.0 288.0L424.0 288.0L424.0 279.0C424.0 277.89542 424.89542 277.0 426.0 277.0L430.0 277.0C431.10458 277.0 432.0 277.89542 432.0 279.0Z" fill-rule="nonzero"/><path fill="#ff5a5f" clip-path="url(#id_0)" d="M432.0 288.0L424.0 288.0L424.0 279.0C424.0 277.89542 424.89542 277.0 426.0 277.0L430.0 277.0C431.10458 277.0 432.0 277.89542 432.0 279.0Z" fill-rule="nonzero"/><path stroke="#000000" stroke-width="0.0" stroke-linecap="butt" stroke-opacity="0.0" clip-path="url(#id_0)" d="M442.0 288.0L434.0 288.0L434.0 255.0C434.0 253.89543 434.89542 253.0 436.0 253.0L440.0 253.0C441.10458 253.0 442.0 253.89543 442.0 255.0Z" fill-rule="nonzero"/><path fill="#ff5a5f" clip-path="url(#id_0)" d="M442.0 288.0L434.0 288.0L434.0 255.0C434.0 253.89543 434.89542 253.0 436.0 253.0L440.0 253.0C441.10458 253.0 442.0 253.89543 442.0 255.0Z" fill-rule="nonzero"/><path stroke="#000000" stroke-width="0.0" stroke-linecap="butt" stroke-opacity="0.0" clip-path="url(#id_0)" d="M452.0 288.0L444.0 288.0L444.0 283.0C444.0 281.89542 444.89542 281.0 446.0 281.0L450.0 281.0C451.10458 281.0 452.0 281.89542 452.0 283.0Z" fill-rule="nonzero"/><path fill="#ff5a5f" clip-path="url(#id_0)" d="M452.0 288.0L444.0 288.0L444.0 283.0C444.0 281.89542 444.89542 281.0 446.0 281.0L450.0 281.0C451.10458 281.0 452.0 281.89542 452.0 283.0Z" fill-rule="nonzero"/><path stroke="#000000" stroke-width="0.0" stroke-linecap="butt" stroke-opacity="0.0" clip-path="url(#id_0)" d="M461.0 288.0L453.0 288.0L453.0 278.0C453.0 276.89542 453.89542 276.0 455.0 276.0L459.0 276.0C460.10458 276.0 461.0 276.89542 461.0 278.0Z" fill-rule="nonzero"/><path fill="#ff5a5f" clip-path="url(#id_0)" d="M461.0 288.0L453.0 288.0L453.0 278.0C453.0 276.89542 453.89542 276.0 455.0 276.0L459.0 276.0C460.10458 276.0 461.0 276.89542 461.0 278.0Z" fill-rule="nonzero"/><path stroke="#000000" stroke-width="0.0" stroke-linecap="butt" stroke-opacity="0.0" clip-path="url(#id_0)" d="M471.0 288.0L463.0 288.0L463.0 283.0C463.0 281.89542 463.89542 281.0 465.0 281.0L469.0 281.0C470.10458 281.0 471.0 281.89542 471.0 283.0Z" fill-rule="nonzero"/><path fill="#ff5a5f" clip-path="url(#id_0)" d="M471.0 288.0L463.0 288.0L463.0 283.0C463.0 281.89542 463.89542 281.0 465.0 281.0L469.0 281.0C470.10458 281.0 471.0 281.89542 471.0 283.0Z" fill-rule="nonzero"/><path stroke="#000000" stroke-width="0.0" stroke-linecap="butt" stroke-opacity="0.0" clip-path="url(#id_0)" d="M481.0 288.0L473.0 288.0L473.0 270.0C473.0 268.89542 473.89542 268.0 475.0 268.0L479.0 268.0C480.10458 268.0 481.0 268.89542 481.0 270.0Z" fill-rule="nonzero"/><path fill="#ff5a5f" clip-path="url(#id_0)" d="M481.0 288.0L473.0 288.0L473.0 270.0C473.0 268.89542 473.89542 268.0 475.0 268.0L479.0 268.0C480.10458 268.0 481.0 268.89542 481.0 270.0Z" fill-rule="nonzero"/><path stroke="#000000" stroke-width="0.0" stroke-linecap="butt" stroke-opacity="0.0" clip-path="url(#id_0)" d="M491.0 288.0L483.0 288.0L483.0 267.0C483.0 265.89542 483.89542 265.0 485.0 265.0L489.0 265.0C490.10458 265.0 491.0 265.89542 491.0 267.0Z" fill-rule="nonzero"/><path fill="#ff5a5f" clip-path="url(#id_0)" d="M491.0 288.0L483.0 288.0L483.0 267.0C483.0 265.89542 483.89542 265.0 485.0 265.0L489.0 265.0C490.10458 265.0 491.0 265.89542 491.0 267.0Z" fill-rule="nonzero"/><path stroke="#000000" stroke-width="0.0" stroke-linecap="butt" stroke-opacity="0.0" clip-path="url(#id_0)" d="M501.0 288.0L493.0 288.0L493.0 286.0C493.0 284.89542 493.89542 284.0 495.0 284.0L499.0 284.0C500.10458 284.0 501.0 284.89542 501.0 286.0Z" fill-rule="nonzero"/><path fill="#ff5a5f" clip-path="url(#id_0)" d="M501.0 288.0L493.0 288.0L493.0 286.0C493.0 284.89542 493.89542 284.0 495.0 284.0L499.0 284.0C500.10458 284.0 501.0 284.89542 501.0 286.0Z" fill-rule="nonzero"/><path stroke="#000000" stroke-width="0.0" stroke-linecap="butt" stroke-opacity="0.0" clip-path="url(#id_0)" d="M511.0 288.0L503.0 288.0L503.0 282.0C503.0 280.89542 503.89542 280.0 505.0 280.0L509.0 280.0C510.10458 280.0 511.0 280.89542 511.0 282.0Z" fill-rule="nonzero"/><path fill="#ff5a5f" clip-path="url(#id_0)" d="M511.0 288.0L503.0 288.0L503.0 282.0C503.0 280.89542 503.89542 280.0 505.0 280.0L509.0 280.0C510.10458 280.0 511.0 280.89542 511.0 282.0Z" fill-rule="nonzero"/><path stroke="#000000" stroke-width="0.0" stroke-linecap="butt" stroke-opacity="0.0" clip-path="url(#id_0)" d="M521.0 288.0L513.0 288.0L513.0 286.5C513.0 285.67157 513.6716 285.0 514.5 285.0L519.5 285.0C520.3284 285.0 521.0 285.67157 521.0 286.5Z" fill-rule="nonzero"/><path fill="#ff5a5f" clip-path="url(#id_0)" d="M521.0 288.0L513.0 288.0L513.0 286.5C513.0 285.67157 513.6716 285.0 514.5 285.0L519.5 285.0C520.3284 285.0 521.0 285.67157 521.0 286.5Z" fill-rule="nonzero"/><path stroke="#000000" stroke-width="0.0" stroke-linecap="butt" stroke-opacity="0.0" clip-path="url(#id_0)" d="M531.0 288.0L523.0 288.0L523.0 286.0C523.0 284.89542 523.89545 284.0 525.0 284.0L529.0 284.0C530.10455 284.0 531.0 284.89542 531.0 286.0Z" fill-rule="nonzero"/><path fill="#ff5a5f" clip-path="url(#id_0)" d="M531.0 288.0L523.0 288.0L523.0 286.0C523.0 284.89542 523.89545 284.0 525.0 284.0L529.0 284.0C530.10455 284.0 531.0 284.89542 531.0 286.0Z" fill-rule="nonzero"/><path stroke="#000000" stroke-width="0.0" stroke-linecap="butt" stroke-opacity="0.0" clip-path="url(#id_0)" d="M541.0 288.0L533.0 288.0L533.0 276.0C533.0 274.89542 533.89545 274.0 535.0 274.0L539.0 274.0C540.10455 274.0 541.0 274.89542 541.0 276.0Z" fill-rule="nonzero"/><path fill="#ff5a5f" clip-path="url(#id_0)" d="M541.0 288.0L533.0 288.0L533.0 276.0C533.0 274.89542 533.89545 274.0 535.0 274.0L539.0 274.0C540.10455 274.0 541.0 274.89542 541.0 276.0Z" fill-rule="nonzero"/><path stroke="#000000" stroke-width="0.0" stroke-linecap="butt" stroke-opacity="0.0" clip-path="url(#id_0)" d="M551.0 288.0L543.0 288.0L543.0 287.0C543.0 286.44772 543.4477 286.0 544.0 286.0L550.0 286.0C550.5523 286.0 551.0 286.44772 551.0 287.0Z" fill-rule="nonzero"/><path fill="#ff5a5f" clip-path="url(#id_0)" d="M551.0 288.0L543.0 288.0L543.0 287.0C543.0 286.44772 543.4477 286.0 544.0 286.0L550.0 286.0C550.5523 286.0 551.0 286.44772 551.0 287.0Z" fill-rule="nonzero"/><path stroke="#000000" stroke-width="0.0" stroke-linecap="butt" stroke-opacity="0.0" clip-path="url(#id_0)" d="M561.0 288.0L553.0 288.0L553.0 286.0C553.0 284.89542 553.89545 284.0 555.0 284.0L559.0 284.0C560.10455 284.0 561.0 284.89542 561.0 286.0Z" fill-rule="nonzero"/><path fill="#ff5a5f" clip-path="url(#id_0)" d="M561.0 288.0L553.0 288.0L553.0 286.0C553.0 284.89542 553.89545 284.0 555.0 284.0L559.0 284.0C560.10455 284.0 561.0 284.89542 561.0 286.0Z" fill-rule="nonzero"/><path stroke="#000000" stroke-width="0.0" stroke-linecap="butt" stroke-opacity="0.0" clip-path="url(#id_0)" d="M571.0 288.0L563.0 288.0L563.0 286.0C563.0 284.89542 563.89545 284.0 565.0 284.0L569.0 284.0C570.10455 284.0 571.0 284.89542 571.0 286.0Z" fill-rule="nonzero"/><path fill="#ff5a5f" clip-path="url(#id_0)" d="M571.0 288.0L563.0 288.0L563.0 286.0C563.0 284.89542 563.89545 284.0 565.0 284.0L569.0 284.0C570.10455 284.0 571.0 284.89542 571.0 286.0Z" fill-rule="nonzero"/><path stroke="#000000" stroke-width="0.0" stroke-linecap="butt" stroke-opacity="0.0" clip-path="url(#id_0)" d="M580.0 288.0L572.0 288.0L572.0 276.0C572.0 274.89542 572.89545 274.0 574.0 274.0L578.0 274.0C579.10455 274.0 580.0 274.89542 580.0 276.0Z" fill-rule="nonzero"/><path fill="#ff5a5f" clip-path="url(#id_0)" d="M580.0 288.0L572.0 288.0L572.0 276.0C572.0 274.89542 572.89545 274.0 574.0 274.0L578.0 274.0C579.10455 274.0 580.0 274.89542 580.0 276.0Z" fill-rule="nonzero"/><path fill="#424242" d="M275.10938 346.10626L275.10938 349.45L273.98438 349.45L273.98438 340.91876L277.14062 340.91876Q278.53125 340.91876 279.32812 341.6375Q280.125 342.34064 280.125 343.52814Q280.125 344.7625 279.34375 345.4344Q278.57812 346.10626 277.125 346.10626L275.10938 346.10626ZM275.10938 345.1844L277.14062 345.1844Q278.04688 345.1844 278.51562 344.7625Q279.0 344.34064 279.0 343.54376Q279.0 342.77814 278.51562 342.325Q278.04688 341.85626 277.20312 341.84064L275.10938 341.84064L275.10938 345.1844ZM284.89062 344.075Q284.64062 344.04376 284.35938 344.04376Q283.28125 344.04376 282.90625 344.95L282.90625 349.45L281.82812 349.45L281.82812 343.10626L282.875 343.10626L282.89062 343.84064Q283.42188 342.9969 284.40625 342.9969Q284.71875 342.9969 284.89062 343.075L284.89062 344.075ZM287.0 349.45L285.92188 349.45L285.92188 343.10626L287.0 343.10626L287.0 349.45ZM285.82812 341.4344Q285.82812 341.16876 285.98438 340.98126Q286.15625 340.79376 286.46875 340.79376Q286.78125 340.79376 286.9375 340.98126Q287.10938 341.16876 287.10938 341.4344Q287.10938 341.6844 286.9375 341.8719Q286.78125 342.04376 286.46875 342.04376Q286.15625 342.04376 285.98438 341.8719Q285.82812 341.6844 285.82812 341.4344ZM291.35938 348.6844Q291.9375 348.6844 292.375 348.34064Q292.8125 347.98126 292.85938 347.45L293.89062 347.45Q293.85938 347.9969 293.5 348.4969Q293.15625 348.98126 292.57812 349.27814Q292.01562 349.575 291.35938 349.575Q290.0625 349.575 289.29688 348.71564Q288.54688 347.84064 288.54688 346.34064L288.54688 346.15314Q288.54688 345.23126 288.875 344.5125Q289.21875 343.79376 289.84375 343.40314Q290.48438 342.9969 291.35938 342.9969Q292.42188 342.9969 293.125 343.6375Q293.84375 344.2625 293.89062 345.29376L292.85938 345.29376Q292.8125 344.66876 292.39062 344.27814Q291.96875 343.8875 291.35938 343.8875Q290.53125 343.8875 290.07812 344.48126Q289.625 345.075 289.625 346.2L289.625 346.40314Q289.625 347.4969 290.07812 348.09064Q290.53125 348.6844 291.35938 348.6844ZM297.45312 349.575Q296.15625 349.575 295.34375 348.73126Q294.54688 347.8719 294.54688 346.45L294.54688 346.2625Q294.54688 345.3094 294.90625 344.575Q295.26562 343.825 295.90625 343.41876Q296.5625 342.9969 297.3125 342.9969Q298.54688 342.9969 299.23438 343.8094Q299.92188 344.6219 299.92188 346.1375L299.92188 346.59064L295.625 346.59064Q295.65625 347.52814 296.17188 348.10626Q296.70312 348.6844 297.51562 348.6844Q298.07812 348.6844 298.46875 348.45Q298.875 348.21564 299.1875 347.825L299.84375 348.34064Q299.04688 349.575 297.45312 349.575ZM297.3125 343.8875Q296.65625 343.8875 296.20312 344.3719Q295.76562 344.84064 295.67188 345.7L298.84375 345.7L298.84375 345.6219Q298.79688 344.79376 298.39062 344.34064Q298.0 343.8875 297.3125 343.8875ZM309.17188 346.35626Q309.17188 347.79376 308.51562 348.6844Q307.85938 349.575 306.71875 349.575Q305.5625 349.575 304.90625 348.84064L304.90625 351.8875L303.82812 351.8875L303.82812 343.10626L304.8125 343.10626L304.85938 343.8094Q305.53125 342.9969 306.70312 342.9969Q307.84375 342.9969 308.5 343.85626Q309.17188 344.71564 309.17188 346.2469L309.17188 346.35626ZM308.09375 346.23126Q308.09375 345.15314 307.625 344.54376Q307.17188 343.91876 306.375 343.91876Q305.39062 343.91876 304.90625 344.77814L304.90625 347.8094Q305.39062 348.6844 306.39062 348.6844Q307.17188 348.6844 307.625 348.075Q308.09375 347.45 308.09375 346.23126ZM313.45312 349.575Q312.15625 349.575 311.34375 348.73126Q310.54688 347.8719 310.54688 346.45L310.54688 346.2625Q310.54688 345.3094 310.90625 344.575Q311.26562 343.825 311.90625 343.41876Q312.5625 342.9969 313.3125 342.9969Q314.54688 342.9969 315.23438 343.8094Q315.92188 344.6219 315.92188 346.1375L315.92188 346.59064L311.625 346.59064Q311.65625 347.52814 312.17188 348.10626Q312.70312 348.6844 313.51562 348.6844Q314.07812 348.6844 314.46875 348.45Q314.875 348.21564 315.1875 347.825L315.84375 348.34064Q315.04688 349.575 313.45312 349.575ZM313.3125 343.8875Q312.65625 343.8875 312.20312 344.3719Q311.76562 344.84064 311.67188 345.7L314.84375 345.7L314.84375 345.6219Q314.79688 344.79376 314.39062 344.34064Q314.0 343.8875 313.3125 343.8875ZM319.89062 344.075Q319.64062 344.04376 319.35938 344.04376Q318.28125 344.04376 317.90625 344.95L317.90625 349.45L316.82812 349.45L316.82812 343.10626L317.875 343.10626L317.89062 343.84064Q318.42188 342.9969 319.40625 342.9969Q319.71875 342.9969 319.89062 343.075L319.89062 344.075ZM330.54688 349.45L329.42188 349.45L325.125 342.8719L325.125 349.45L323.98438 349.45L323.98438 340.91876L325.125 340.91876L329.42188 347.52814L329.42188 340.91876L330.54688 340.91876L330.54688 349.45ZM334.0 349.45L332.92188 349.45L332.92188 343.10626L334.0 343.10626L334.0 349.45ZM332.82812 341.4344Q332.82812 341.16876 332.98438 340.98126Q333.15625 340.79376 333.46875 340.79376Q333.78125 340.79376 333.9375 340.98126Q334.10938 341.16876 334.10938 341.4344Q334.10938 341.6844 333.9375 341.8719Q333.78125 342.04376 333.46875 342.04376Q333.15625 342.04376 332.98438 341.8719Q332.82812 341.6844 332.82812 341.4344ZM335.5625 346.23126Q335.5625 344.7469 336.25 343.8719Q336.9375 342.9969 338.0625 342.9969Q339.21875 342.9969 339.875 343.8094L339.92188 343.10626L340.92188 343.10626L340.92188 349.29376Q340.92188 350.52814 340.1875 351.23126Q339.45312 351.95 338.23438 351.95Q337.54688 351.95 336.89062 351.65314Q336.23438 351.35626 335.89062 350.85626L336.45312 350.2Q337.14062 351.0594 338.15625 351.0594Q338.9375 351.0594 339.375 350.60626Q339.82812 350.16876 339.82812 349.35626L339.82812 348.8094Q339.17188 349.575 338.04688 349.575Q336.9375 349.575 336.25 348.6844Q335.5625 347.77814 335.5625 346.23126ZM336.65625 346.35626Q336.65625 347.41876 337.09375 348.04376Q337.53125 348.65314 338.32812 348.65314Q339.34375 348.65314 339.82812 347.71564L339.82812 344.825Q339.32812 343.91876 338.32812 343.91876Q337.54688 343.91876 337.09375 344.52814Q336.65625 345.1375 336.65625 346.35626ZM343.90625 343.8719Q344.625 342.9969 345.78125 342.9969Q347.79688 342.9969 347.8125 345.2625L347.8125 349.45L346.71875 349.45L346.71875 345.2469Q346.71875 344.575 346.40625 344.2469Q346.10938 343.91876 345.45312 343.91876Q344.92188 343.91876 344.51562 344.2Q344.125 344.48126 343.90625 344.9344L343.90625 349.45L342.82812 349.45L342.82812 340.45L343.90625 340.45L343.90625 343.8719ZM351.29688 341.575L351.29688 343.10626L352.46875 343.10626L352.46875 343.95L351.29688 343.95L351.29688 347.8719Q351.29688 348.2625 351.45312 348.45Q351.60938 348.6375 351.98438 348.6375Q352.17188 348.6375 352.5 348.575L352.5 349.45Q352.07812 349.575 351.67188 349.575Q350.95312 349.575 350.57812 349.1375Q350.20312 348.6844 350.20312 347.8719L350.20312 343.95L349.04688 343.95L349.04688 343.10626L350.20312 343.10626L350.20312 341.575L351.29688 341.575ZM356.78125 345.98126Q356.78125 344.66876 357.125 343.45Q357.48438 342.23126 358.1875 341.23126Q358.89062 340.23126 359.65625 339.825L359.875 340.54376Q359.01562 341.2 358.46875 342.54376Q357.92188 343.8875 357.875 345.5594L357.85938 346.0594Q357.85938 348.325 358.6875 349.98126Q359.1875 350.98126 359.875 351.54376L359.65625 352.2Q358.875 351.77814 358.15625 350.7469Q356.78125 348.7625 356.78125 345.98126ZM365.01562 347.2469Q365.01562 346.71564 364.64062 346.35626Q364.26562 345.98126 363.35938 345.66876Q362.10938 345.29376 361.53125 344.6844Q360.96875 344.075 360.96875 343.1219Q360.96875 342.16876 361.53125 341.5594Q362.09375 340.9344 363.07812 340.825L363.07812 339.52814L363.9375 339.52814L363.9375 340.825Q364.92188 340.96564 365.46875 341.65314Q366.03125 342.34064 366.03125 343.54376L364.95312 343.54376Q364.95312 342.71564 364.54688 342.23126Q364.15625 341.7469 363.5 341.7469Q362.79688 341.7469 362.42188 342.10626Q362.0625 342.46564 362.0625 343.10626Q362.0625 343.7 362.45312 344.0594Q362.84375 344.41876 363.73438 344.71564Q364.625 344.9969 365.125 345.35626Q365.625 345.7 365.85938 346.16876Q366.09375 346.6219 366.09375 347.2469Q366.09375 348.23126 365.5 348.84064Q364.90625 349.4344 363.84375 349.54376L363.84375 350.66876L362.96875 350.66876L362.96875 349.54376Q361.875 349.45 361.25 348.77814Q360.64062 348.09064 360.64062 346.9344L361.73438 346.9344Q361.73438 347.7469 362.15625 348.1844Q362.57812 348.6219 363.375 348.6219Q364.14062 348.6219 364.57812 348.2625Q365.01562 347.8875 365.01562 347.2469ZM374.0 340.91876L374.0 346.71564Q373.98438 347.91876 373.23438 348.7Q372.48438 349.46564 371.20312 349.5594L370.89062 349.575Q369.5 349.575 368.65625 348.825Q367.82812 348.0594 367.82812 346.73126L367.82812 340.91876L368.9375 340.91876L368.9375 346.7Q368.9375 347.6219 369.4375 348.1375Q369.95312 348.65314 370.89062 348.65314Q371.85938 348.65314 372.35938 348.1375Q372.85938 347.6219 372.85938 346.7L372.85938 340.91876L374.0 340.91876ZM378.5 345.65314Q377.0625 345.23126 376.39062 344.6219Q375.73438 344.0125 375.73438 343.1219Q375.73438 342.1219 376.53125 341.46564Q377.34375 340.79376 378.64062 340.79376Q379.51562 340.79376 380.20312 341.1375Q380.89062 341.48126 381.26562 342.075Q381.65625 342.66876 381.65625 343.3875L380.51562 343.3875Q380.51562 342.60626 380.01562 342.16876Q379.53125 341.73126 378.64062 341.73126Q377.8125 341.73126 377.34375 342.10626Q376.875 342.46564 376.875 343.10626Q376.875 343.6375 377.3125 343.9969Q377.76562 344.35626 378.82812 344.65314Q379.89062 344.95 380.48438 345.3094Q381.09375 345.66876 381.375 346.15314Q381.67188 346.6375 381.67188 347.27814Q381.67188 348.325 380.85938 348.95Q380.04688 349.575 378.70312 349.575Q377.8125 349.575 377.04688 349.23126Q376.29688 348.8875 375.875 348.3094Q375.46875 347.71564 375.46875 346.98126L376.59375 346.98126Q376.59375 347.7469 377.17188 348.2Q377.75 348.65314 378.70312 348.65314Q379.59375 348.65314 380.0625 348.29376Q380.53125 347.91876 380.53125 347.29376Q380.53125 346.66876 380.09375 346.325Q379.65625 345.98126 378.5 345.65314ZM382.98438 349.45L382.98438 340.91876L385.40625 340.91876Q386.51562 340.91876 387.35938 341.41876Q388.21875 341.90314 388.6875 342.8094Q389.15625 343.71564 389.15625 344.90314L389.15625 345.4344Q389.15625 346.65314 388.6875 347.5594Q388.23438 348.46564 387.35938 348.95Q386.5 349.4344 385.35938 349.45L382.98438 349.45ZM384.10938 341.84064L384.10938 348.52814L385.29688 348.52814Q386.59375 348.52814 387.3125 347.73126Q388.04688 346.91876 388.04688 345.41876L388.04688 344.91876Q388.04688 343.46564 387.35938 342.66876Q386.6875 341.85626 385.42188 341.84064L384.10938 341.84064ZM393.32812 346.04376Q393.32812 347.35626 392.98438 348.5594Q392.64062 349.7469 391.92188 350.7625Q391.21875 351.77814 390.45312 352.2L390.21875 351.54376Q391.125 350.85626 391.67188 349.40314Q392.21875 347.9344 392.23438 346.16876L392.23438 345.98126Q392.23438 344.7469 391.96875 343.6844Q391.71875 342.6219 391.25 341.79376Q390.79688 340.95 390.21875 340.48126L390.45312 339.825Q391.21875 340.2469 391.92188 341.2469Q392.625 342.2469 392.96875 343.46564Q393.32812 344.66876 393.32812 346.04376Z" fill-rule="nonzero"/><path fill="#424242" d="M27.846888 178.23438Q29.190638 178.39062 29.940638 179.23438Q30.675013 180.07812 30.675013 181.46875Q30.675013 182.98438 29.596888 183.89062Q28.503138 184.79688 26.675013 184.79688L25.862513 184.79688Q24.675013 184.79688 23.768763 184.375Q22.862513 183.95312 22.378138 183.17188Q21.893763 182.39062 21.893763 181.375Q21.893763 180.01562 22.659388 179.20312Q23.425013 178.375 24.753138 178.23438L24.753138 179.35938Q23.737513 179.51562 23.284388 180.0Q22.831263 180.48438 22.831263 181.375Q22.831263 182.45312 23.628138 183.0625Q24.425013 183.67188 25.893763 183.67188L26.721888 183.67188Q28.112513 183.67188 28.940638 183.09375Q29.753138 182.51562 29.753138 181.46875Q29.753138 180.53125 29.331263 180.03125Q28.893763 179.53125 27.846888 179.35938L27.846888 178.23438ZM27.315638 176.96875Q26.393763 176.96875 25.643763 176.60938Q24.893763 176.23438 24.503138 175.57812Q24.096888 174.92188 24.096888 174.09375Q24.096888 172.79688 24.987513 172.0Q25.878138 171.1875 27.378138 171.1875L27.456263 171.1875Q28.378138 171.1875 29.112513 171.54688Q29.846888 171.90625 30.268763 172.5625Q30.675013 173.21875 30.675013 174.07812Q30.675013 175.35938 29.784388 176.17188Q28.878138 176.96875 27.393763 176.96875L27.315638 176.96875ZM27.456263 175.875Q28.503138 175.875 29.143763 175.39062Q29.784388 174.89062 29.784388 174.07812Q29.784388 173.25 29.143763 172.76562Q28.487513 172.28125 27.315638 172.28125Q26.284388 172.28125 25.643763 172.78125Q24.987513 173.26562 24.987513 174.09375Q24.987513 174.89062 25.628138 175.39062Q26.253138 175.875 27.456263 175.875ZM29.925013 165.76562Q30.675013 166.39062 30.675013 167.625Q30.675013 168.64062 30.081263 169.17188Q29.487513 169.70312 28.331263 169.70312L24.206263 169.70312L24.206263 168.625L28.300013 168.625Q29.753138 168.625 29.753138 167.45312Q29.753138 166.20312 28.815638 165.79688L24.206263 165.79688L24.206263 164.70312L30.550013 164.70312L30.550013 165.73438L29.925013 165.76562ZM24.206263 161.65625L25.003138 161.625Q24.096888 160.89062 24.096888 159.71875Q24.096888 157.70312 26.362513 157.6875L30.550013 157.6875L30.550013 158.78125L26.346888 158.78125Q25.675013 158.78125 25.346888 159.09375Q25.018763 159.39062 25.018763 160.04688Q25.018763 160.57812 25.300013 160.98438Q25.581263 161.375 26.034388 161.59375L30.550013 161.59375L30.550013 162.67188L24.206263 162.67188L24.206263 161.65625ZM22.675013 154.20312L24.206263 154.20312L24.206263 153.03125L25.050013 153.03125L25.050013 154.20312L28.971888 154.20312Q29.362513 154.20312 29.550013 154.04688Q29.737513 153.89062 29.737513 153.51562Q29.737513 153.32812 29.675013 153.0L30.550013 153.0Q30.675013 153.42188 30.675013 153.82812Q30.675013 154.54688 30.237513 154.92188Q29.784388 155.29688 28.971888 155.29688L25.050013 155.29688L25.050013 156.45312L24.206263 156.45312L24.206263 155.29688L22.675013 155.29688L22.675013 154.20312Z" fill-rule="nonzero"/><path fill="#757575" d="M78.6125 288.81418Q78.6125 290.72043 77.95625 291.65793Q77.31563 292.5798 75.925 292.5798Q74.56563 292.5798 73.90938 291.67355Q73.25313 290.7673 73.22188 288.9548L73.22188 287.5173Q73.22188 285.62668 73.8625 284.72043Q74.51875 283.79855 75.90938 283.79855Q77.28438 283.79855 77.94063 284.68918Q78.59688 285.56418 78.6125 287.40793L78.6125 288.81418ZM77.51875 287.3298Q77.51875 285.9548 77.12813 285.3298Q76.75313 284.68918 75.90938 284.68918Q75.08125 284.68918 74.69063 285.3298Q74.31563 285.9548 74.31563 287.25168L74.31563 288.98605Q74.31563 290.36105 74.70625 291.03293Q75.1125 291.68918 75.925 291.68918Q76.72188 291.68918 77.1125 291.06418Q77.50313 290.43918 77.51875 289.11105L77.51875 287.3298Z" fill-rule="nonzero"/><path fill="#757575" d="M64.84688 240.07385L59.253124 240.07385L59.253124 239.2926L62.20625 236.01135Q62.8625 235.26135 63.1125 234.80823Q63.3625 234.33948 63.3625 233.83948Q63.3625 233.1676 62.95625 232.74573Q62.565624 232.30823 61.878124 232.30823Q61.08125 232.30823 60.628124 232.77698Q60.175 233.2301 60.175 234.05823L59.096874 234.05823Q59.096874 232.87073 59.846874 232.15198Q60.6125 231.4176 61.878124 231.4176Q63.08125 231.4176 63.76875 232.0426Q64.45625 232.6676 64.45625 233.71448Q64.45625 234.96448 62.846874 236.71448L60.565624 239.18323L64.84688 239.18323L64.84688 240.07385ZM66.75313 235.7926L67.19063 231.5426L71.56563 231.5426L71.56563 232.5426L68.1125 232.5426L67.84688 234.87073Q68.4875 234.49573 69.28438 234.49573Q70.44063 234.49573 71.12813 235.27698Q71.81563 236.0426 71.81563 237.3551Q71.81563 238.6676 71.09688 239.43323Q70.39375 240.19885 69.1125 240.19885Q67.9875 240.19885 67.26875 239.57385Q66.55 238.93323 66.45625 237.82385L67.47188 237.82385Q67.58125 238.55823 68.00313 238.93323Q68.425 239.30823 69.1125 239.30823Q69.8625 239.30823 70.3 238.7926Q70.7375 238.27698 70.7375 237.37073Q70.7375 236.51135 70.26875 235.99573Q69.8 235.4801 69.01875 235.4801Q68.31563 235.4801 67.90938 235.77698L67.62813 236.01135L66.75313 235.7926ZM78.6125 236.43323Q78.6125 238.33948 77.95625 239.27698Q77.31563 240.19885 75.925 240.19885Q74.56563 240.19885 73.90938 239.2926Q73.25313 238.38635 73.22188 236.57385L73.22188 235.13635Q73.22188 233.24573 73.8625 232.33948Q74.51875 231.4176 75.90938 231.4176Q77.28438 231.4176 77.94063 232.30823Q78.59688 233.18323 78.6125 235.02698L78.6125 236.43323ZM77.51875 234.94885Q77.51875 233.57385 77.12813 232.94885Q76.75313 232.30823 75.90938 232.30823Q75.08125 232.30823 74.69063 232.94885Q74.31563 233.57385 74.31563 234.87073L74.31563 236.6051Q74.31563 237.9801 74.70625 238.65198Q75.1125 239.30823 75.925 239.30823Q76.72188 239.30823 77.1125 238.68323Q77.50313 238.05823 77.51875 236.7301L77.51875 234.94885Z" fill-rule="nonzero"/><path fill="#757575" d="M59.753124 183.41164L60.190624 179.16164L64.56563 179.16164L64.56563 180.16164L61.1125 180.16164L60.846874 182.48976Q61.4875 182.11476 62.284374 182.11476Q63.440624 182.11476 64.12813 182.89601Q64.81563 183.66164 64.81563 184.97414Q64.81563 186.28664 64.09688 187.05226Q63.39375 187.81789 62.1125 187.81789Q60.9875 187.81789 60.26875 187.19289Q59.55 186.55226 59.45625 185.44289L60.471874 185.44289Q60.58125 186.17726 61.003124 186.55226Q61.425 186.92726 62.1125 186.92726Q62.8625 186.92726 63.3 186.41164Q63.7375 185.89601 63.7375 184.98976Q63.7375 184.13039 63.26875 183.61476Q62.8 183.09914 62.01875 183.09914Q61.315624 183.09914 60.909374 183.39601L60.628124 183.63039L59.753124 183.41164ZM71.6125 184.05226Q71.6125 185.95851 70.95625 186.89601Q70.31563 187.81789 68.925 187.81789Q67.56563 187.81789 66.90938 186.91164Q66.25313 186.00539 66.22188 184.19289L66.22188 182.75539Q66.22188 180.86476 66.8625 179.95851Q67.51875 179.03664 68.90938 179.03664Q70.28438 179.03664 70.94063 179.92726Q71.59688 180.80226 71.6125 182.64601L71.6125 184.05226ZM70.51875 182.56789Q70.51875 181.19289 70.12813 180.56789Q69.75313 179.92726 68.90938 179.92726Q68.08125 179.92726 67.69063 180.56789Q67.31563 181.19289 67.31563 182.48976L67.31563 184.22414Q67.31563 185.59914 67.70625 186.27101Q68.1125 186.92726 68.925 186.92726Q69.72188 186.92726 70.1125 186.30226Q70.50313 185.67726 70.51875 184.34914L70.51875 182.56789ZM78.6125 184.05226Q78.6125 185.95851 77.95625 186.89601Q77.31563 187.81789 75.925 187.81789Q74.56563 187.81789 73.90938 186.91164Q73.25313 186.00539 73.22188 184.19289L73.22188 182.75539Q73.22188 180.86476 73.8625 179.95851Q74.51875 179.03664 75.90938 179.03664Q77.28438 179.03664 77.94063 179.92726Q78.59688 180.80226 78.6125 182.64601L78.6125 184.05226ZM77.51875 182.56789Q77.51875 181.19289 77.12813 180.56789Q76.75313 179.92726 75.90938 179.92726Q75.08125 179.92726 74.69063 180.56789Q74.31563 181.19289 74.31563 182.48976L74.31563 184.22414Q74.31563 185.59914 74.70625 186.27101Q75.1125 186.92726 75.925 186.92726Q76.72188 186.92726 77.1125 186.30226Q77.50313 185.67726 77.51875 184.34914L77.51875 182.56789Z" fill-rule="nonzero"/><path fill="#757575" d="M64.76875 127.390045L61.2375 135.31192L60.096874 135.31192L63.6125 127.671295L59.003124 127.671295L59.003124 126.78067L64.76875 126.78067L64.76875 127.390045ZM66.75313 131.03067L67.19063 126.78067L71.56563 126.78067L71.56563 127.78067L68.1125 127.78067L67.84688 130.1088Q68.4875 129.7338 69.28438 129.7338Q70.44063 129.7338 71.12813 130.51505Q71.81563 131.28067 71.81563 132.59317Q71.81563 133.90567 71.09688 134.6713Q70.39375 135.43692 69.1125 135.43692Q67.9875 135.43692 67.26875 134.81192Q66.55 134.1713 66.45625 133.06192L67.47188 133.06192Q67.58125 133.7963 68.00313 134.1713Q68.425 134.5463 69.1125 134.5463Q69.8625 134.5463 70.3 134.03067Q70.7375 133.51505 70.7375 132.6088Q70.7375 131.74942 70.26875 131.2338Q69.8 130.71817 69.01875 130.71817Q68.31563 130.71817 67.90938 131.01505L67.62813 131.24942L66.75313 131.03067ZM78.6125 131.6713Q78.6125 133.57755 77.95625 134.51505Q77.31563 135.43692 75.925 135.43692Q74.56563 135.43692 73.90938 134.53067Q73.25313 133.62442 73.22188 131.81192L73.22188 130.37442Q73.22188 128.4838 73.8625 127.577545Q74.51875 126.65567 75.90938 126.65567Q77.28438 126.65567 77.94063 127.546295Q78.59688 128.4213 78.6125 130.26505L78.6125 131.6713ZM77.51875 130.18692Q77.51875 128.81192 77.12813 128.18692Q76.75313 127.546295 75.90938 127.546295Q75.08125 127.546295 74.69063 128.18692Q74.31563 128.81192 74.31563 130.1088L74.31563 131.84317Q74.31563 133.21817 74.70625 133.89005Q75.1125 134.5463 75.925 134.5463Q76.72188 134.5463 77.1125 133.9213Q77.50313 133.2963 77.51875 131.96817L77.51875 130.18692Z" fill-rule="nonzero"/><path fill="#757575" d="M55.815624 82.93096L54.7375 82.93096L54.7375 75.71221L52.55 76.50909L52.55 75.52471L55.659374 74.35284L55.815624 74.35284L55.815624 82.93096ZM64.6125 79.29034Q64.6125 81.19659 63.95625 82.13409Q63.315624 83.05596 61.925 83.05596Q60.565624 83.05596 59.909374 82.14971Q59.253124 81.24346 59.221874 79.43096L59.221874 77.99346Q59.221874 76.10284 59.8625 75.19659Q60.51875 74.27471 61.909374 74.27471Q63.284374 74.27471 63.940624 75.16534Q64.59688 76.04034 64.6125 77.88409L64.6125 79.29034ZM63.51875 77.80596Q63.51875 76.43096 63.128124 75.80596Q62.753124 75.16534 61.909374 75.16534Q61.08125 75.16534 60.690624 75.80596Q60.315624 76.43096 60.315624 77.72784L60.315624 79.46221Q60.315624 80.83721 60.70625 81.50909Q61.1125 82.16534 61.925 82.16534Q62.721874 82.16534 63.1125 81.54034Q63.503124 80.91534 63.51875 79.58721L63.51875 77.80596ZM71.6125 79.29034Q71.6125 81.19659 70.95625 82.13409Q70.31563 83.05596 68.925 83.05596Q67.56563 83.05596 66.90938 82.14971Q66.25313 81.24346 66.22188 79.43096L66.22188 77.99346Q66.22188 76.10284 66.8625 75.19659Q67.51875 74.27471 68.90938 74.27471Q70.28438 74.27471 70.94063 75.16534Q71.59688 76.04034 71.6125 77.88409L71.6125 79.29034ZM70.51875 77.80596Q70.51875 76.43096 70.12813 75.80596Q69.75313 75.16534 68.90938 75.16534Q68.08125 75.16534 67.69063 75.80596Q67.31563 76.43096 67.31563 77.72784L67.31563 79.46221Q67.31563 80.83721 67.70625 81.50909Q68.1125 82.16534 68.925 82.16534Q69.72188 82.16534 70.1125 81.54034Q70.50313 80.91534 70.51875 79.58721L70.51875 77.80596ZM78.6125 79.29034Q78.6125 81.19659 77.95625 82.13409Q77.31563 83.05596 75.925 83.05596Q74.56563 83.05596 73.90938 82.14971Q73.25313 81.24346 73.22188 79.43096L73.22188 77.99346Q73.22188 76.10284 73.8625 75.19659Q74.51875 74.27471 75.90938 74.27471Q77.28438 74.27471 77.94063 75.16534Q78.59688 76.04034 78.6125 77.88409L78.6125 79.29034ZM77.51875 77.80596Q77.51875 76.43096 77.12813 75.80596Q76.75313 75.16534 75.90938 75.16534Q75.08125 75.16534 74.69063 75.80596Q74.31563 76.43096 74.31563 77.72784L74.31563 79.46221Q74.31563 80.83721 74.70625 81.50909Q75.1125 82.16534 75.925 82.16534Q76.72188 82.16534 77.1125 81.54034Q77.50313 80.91534 77.51875 79.58721L77.51875 77.80596Z" fill-rule="nonzero"/><path fill="#757575" d="M55.815624 30.55L54.7375 30.55L54.7375 23.33125L52.55 24.128124L52.55 23.14375L55.659374 21.971874L55.815624 21.971874L55.815624 30.55ZM64.84688 30.55L59.253124 30.55L59.253124 29.76875L62.20625 26.4875Q62.8625 25.7375 63.1125 25.284374Q63.3625 24.815624 63.3625 24.315624Q63.3625 23.64375 62.95625 23.221874Q62.565624 22.784374 61.878124 22.784374Q61.08125 22.784374 60.628124 23.253124Q60.175 23.70625 60.175 24.534374L59.096874 24.534374Q59.096874 23.346874 59.846874 22.628124Q60.6125 21.89375 61.878124 21.89375Q63.08125 21.89375 63.76875 22.51875Q64.45625 23.14375 64.45625 24.190624Q64.45625 25.440624 62.846874 27.190624L60.565624 29.659374L64.84688 29.659374L64.84688 30.55ZM66.75313 26.26875L67.19063 22.01875L71.56563 22.01875L71.56563 23.01875L68.1125 23.01875L67.84688 25.346874Q68.4875 24.971874 69.28438 24.971874Q70.44063 24.971874 71.12813 25.753124Q71.81563 26.51875 71.81563 27.83125Q71.81563 29.14375 71.09688 29.909374Q70.39375 30.675 69.1125 30.675Q67.9875 30.675 67.26875 30.05Q66.55 29.409374 66.45625 28.3L67.47188 28.3Q67.58125 29.034374 68.00313 29.409374Q68.425 29.784374 69.1125 29.784374Q69.8625 29.784374 70.3 29.26875Q70.7375 28.753124 70.7375 27.846874Q70.7375 26.9875 70.26875 26.471874Q69.8 25.95625 69.01875 25.95625Q68.31563 25.95625 67.90938 26.253124L67.62813 26.4875L66.75313 26.26875ZM78.6125 26.909374Q78.6125 28.815624 77.95625 29.753124Q77.31563 30.675 75.925 30.675Q74.56563 30.675 73.90938 29.76875Q73.25313 28.8625 73.22188 27.05L73.22188 25.6125Q73.22188 23.721874 73.8625 22.815624Q74.51875 21.89375 75.90938 21.89375Q77.28438 21.89375 77.94063 22.784374Q78.59688 23.659374 78.6125 25.503124L78.6125 26.909374ZM77.51875 25.425Q77.51875 24.05 77.12813 23.425Q76.75313 22.784374 75.90938 22.784374Q75.08125 22.784374 74.69063 23.425Q74.31563 24.05 74.31563 25.346874L74.31563 27.08125Q74.31563 28.45625 74.70625 29.128124Q75.1125 29.784374 75.925 29.784374Q76.72188 29.784374 77.1125 29.159374Q77.50313 28.534374 77.51875 27.20625L77.51875 25.425Z" fill-rule="nonzero"/><path fill="#757575" d="M76.94055 310.163Q77.89368 311.81387 77.7941 312.9539Q77.70024 314.07257 76.495926 314.76788Q75.31867 315.44757 74.29722 314.99084Q73.275764 314.53415 72.342445 312.9801L71.623695 311.7352Q70.67838 310.09787 70.78006 308.9927Q70.88745 307.8662 72.09177 307.1709Q73.282555 306.4834 74.296196 306.92657Q75.302025 307.35623 76.23743 308.94516L76.94055 310.163ZM75.25115 309.42438Q74.56365 308.23358 73.91286 307.88763Q73.26779 307.52032 72.53708 307.9422Q71.8199 308.35626 71.801926 309.10638Q71.789665 309.83514 72.4381 310.95828L73.30529 312.4603Q73.99279 313.65106 74.667015 314.03763Q75.34696 314.40283 76.05061 313.99658Q76.74072 313.59814 76.76652 312.86157Q76.792305 312.12497 76.14178 310.96698L75.25115 309.42438ZM80.022224 311.9381Q79.8816 311.69455 79.923164 311.45404Q79.978264 311.20572 80.26243 311.04166Q80.56013 310.86978 80.80273 310.94623Q81.04532 311.02267 81.18594 311.26624Q81.318756 311.49628 81.263664 311.7446Q81.20075 311.97937 80.90305 312.15125Q80.61889 312.3153 80.3841 312.2524Q80.15504 312.16815 80.022224 311.9381ZM85.60081 305.163Q86.55393 306.81387 86.45435 307.9539Q86.3605 309.07257 85.15618 309.76788Q83.97893 310.44757 82.95747 309.99084Q81.93601 309.53415 81.0027 307.9801L80.28395 306.7352Q79.33864 305.09787 79.440315 303.9927Q79.54771 302.8662 80.75202 302.1709Q81.9428 301.4834 82.95645 301.92657Q83.96228 302.35623 84.89768 303.94516L85.60081 305.163ZM83.91141 304.42438Q83.22391 303.23358 82.57311 302.88763Q81.92804 302.52032 81.197334 302.9422Q80.480156 303.35626 80.46218 304.10638Q80.44992 304.83514 81.09836 305.95828L81.965546 307.4603Q82.653046 308.65106 83.32727 309.03763Q84.00722 309.40283 84.71087 308.99658Q85.40098 308.59814 85.42677 307.86157Q85.45256 307.12497 84.80203 305.96698L83.91141 304.42438ZM91.66299 301.663Q92.61611 303.31387 92.51653 304.4539Q92.42267 305.57257 91.21835 306.26788Q90.0411 306.94757 89.019646 306.49084Q87.99819 306.03415 87.06488 304.4801L86.34613 303.2352Q85.40082 301.59787 85.50249 300.4927Q85.60988 299.3662 86.8142 298.6709Q88.00498 297.9834 89.01862 298.42657Q90.02445 298.85623 90.95986 300.44516L91.66299 301.663ZM89.97359 300.92438Q89.28609 299.73358 88.63529 299.38763Q87.99022 299.02032 87.259514 299.4422Q86.542336 299.85626 86.52435 300.60638Q86.51209 301.33514 87.16053 302.45828L88.02772 303.9603Q88.71522 305.15106 89.38945 305.53763Q90.0694 305.90283 90.77304 305.49658Q91.46316 305.09814 91.488945 304.36157Q91.51474 303.62497 90.86421 302.46698L89.97359 300.92438Z" fill-rule="nonzero"/><path fill="#757575" d="M110.26442 314.73022L111.29282 314.13647L111.73032 314.89423L110.70192 315.48798L111.69411 317.2065L110.76042 317.74557L109.768234 316.02704L106.39885 317.97235L106.07854 317.41757L106.42714 310.39633L107.42848 309.8182L110.26442 314.73022ZM107.03035 316.5974L109.330734 315.2693L107.236984 311.6428L107.23238 311.91608L107.03035 316.5974ZM116.61255 310.163Q117.565674 311.81387 117.466095 312.9539Q117.37224 314.07257 116.16792 314.76788Q114.99067 315.44757 113.969215 314.99084Q112.94776 314.53415 112.01444 312.9801L111.29569 311.7352Q110.35038 310.09787 110.45206 308.9927Q110.55945 307.8662 111.76376 307.1709Q112.95455 306.4834 113.96819 306.92657Q114.97402 307.35623 115.909424 308.94516L116.61255 310.163ZM114.92315 309.42438Q114.23565 308.23358 113.584854 307.88763Q112.93979 307.52032 112.209076 307.9422Q111.4919 308.35626 111.47392 309.10638Q111.46166 309.83514 112.1101 310.95828L112.97729 312.4603Q113.66479 313.65106 114.33901 314.03763Q115.01897 314.40283 115.72261 313.99658Q116.41272 313.59814 116.438515 312.86157Q116.4643 312.12497 115.813774 310.96698L114.92315 309.42438ZM119.69422 311.9381Q119.5536 311.69455 119.59516 311.45404Q119.65026 311.20572 119.934425 311.04166Q120.232124 310.86978 120.474724 310.94623Q120.717316 311.02267 120.85794 311.26624Q120.99075 311.49628 120.93566 311.7446Q120.87275 311.97937 120.57505 312.15125Q120.290886 312.3153 120.0561 312.2524Q119.827034 312.16815 119.69422 311.9381ZM125.272804 305.163Q126.22593 306.81387 126.12635 307.9539Q126.03249 309.07257 124.82818 309.76788Q123.650925 310.44757 122.62947 309.99084Q121.60802 309.53415 120.6747 307.9801L119.95595 306.7352Q119.010635 305.09787 119.11231 303.9927Q119.2197 302.8662 120.42402 302.1709Q121.61481 301.4834 122.62845 301.92657Q123.63428 302.35623 124.56968 303.94516L125.272804 305.163ZM123.583405 304.42438Q122.895905 303.23358 122.24511 302.88763Q121.60004 302.52032 120.86933 302.9422Q120.15215 303.35626 120.13418 304.10638Q120.12192 304.83514 120.770355 305.95828L121.63754 307.4603Q122.32504 308.65106 122.99927 309.03763Q123.679214 309.40283 124.382866 308.99658Q125.072975 308.59814 125.09877 307.86157Q125.12456 307.12497 124.47403 305.96698L123.583405 304.42438ZM131.33498 301.663Q132.2881 303.31387 132.18852 304.4539Q132.09467 305.57257 130.89035 306.26788Q129.7131 306.94757 128.69165 306.49084Q127.67019 306.03415 126.73688 304.4801L126.01813 303.2352Q125.072815 301.59787 125.174484 300.4927Q125.28188 299.3662 126.4862 298.6709Q127.67698 297.9834 128.69063 298.42657Q129.69646 298.85623 130.63185 300.44516L131.33498 301.663ZM129.64558 300.92438Q128.95808 299.73358 128.3073 299.38763Q127.66222 299.02032 126.93151 299.4422Q126.21433 299.85626 126.19635 300.60638Q126.18409 301.33514 126.83253 302.45828L127.699715 303.9603Q128.38722 305.15106 129.06145 305.53763Q129.7414 305.90283 130.44504 305.49658Q131.13515 305.09814 131.16095 304.36157Q131.18674 303.62497 130.53621 302.46698L129.64558 300.92438Z" fill-rule="nonzero"/><path fill="#757575" d="M148.73758 311.43503Q149.05789 311.98984 149.01021 312.59473Q148.96251 313.19962 148.616 313.72443Q149.32495 313.63986 149.94449 313.9317Q150.55621 314.21 150.90778 314.8189Q151.45465 315.7661 151.14107 316.723Q150.8332 317.6585 149.77774 318.26788Q148.70874 318.88507 147.7311 318.69174Q146.75917 318.47705 146.2123 317.52985Q145.86073 316.92093 145.91206 316.25983Q145.95557 315.58517 146.3968 315.00568Q145.76904 315.04337 145.23488 314.7744Q144.70071 314.50546 144.3804 313.95065Q143.84134 313.01697 144.12422 312.13196Q144.3993 311.2334 145.38712 310.6631Q146.36139 310.1006 147.2771 310.31165Q148.19852 310.50134 148.73758 311.43503ZM149.95847 315.3309Q149.59909 314.70847 148.98793 314.55612Q148.36894 314.3903 147.73296 314.75748Q147.09697 315.12466 146.93112 315.74362Q146.77098 316.34128 147.13817 316.97726Q147.49754 317.5997 148.08737 317.7463Q148.66937 317.8794 149.33243 317.49658Q149.98195 317.12158 150.1499 316.53748Q150.31784 315.95337 149.95847 315.3309ZM145.83243 311.4344Q145.27763 311.7547 145.12894 312.30966Q144.98595 312.84326 145.3297 313.43866Q145.65001 313.99344 146.19144 314.14996Q146.73285 314.3065 147.28764 313.98618Q147.85597 313.65805 147.99113 313.1109Q148.12631 312.56375 147.806 312.00897Q147.47787 311.44064 146.92293 311.29193Q146.36017 311.1297 145.83243 311.4344ZM156.28455 310.163Q157.23767 311.81387 157.13809 312.9539Q157.04424 314.07257 155.83992 314.76788Q154.66266 315.44757 153.6412 314.99084Q152.61975 314.53415 151.68645 312.9801L150.9677 311.7352Q150.02238 310.09787 150.12405 308.9927Q150.23145 307.8662 151.43576 307.1709Q152.62654 306.4834 153.64018 306.92657Q154.64601 307.35623 155.58142 308.94516L156.28455 310.163ZM154.59515 309.42438Q153.90765 308.23358 153.25685 307.88763Q152.61179 307.52032 151.88107 307.9422Q151.1639 308.35626 151.14592 309.10638Q151.13365 309.83514 151.78209 310.95828L152.64928 312.4603Q153.33678 313.65106 154.01102 314.03763Q154.69096 314.40283 155.3946 313.99658Q156.08472 313.59814 156.1105 312.86157Q156.1363 312.12497 155.48578 310.96698L154.59515 309.42438ZM159.36623 311.9381Q159.2256 311.69455 159.26717 311.45404Q159.32227 311.20572 159.60643 311.04166Q159.90411 310.86978 160.14671 310.94623Q160.38931 311.02267 160.52994 311.26624Q160.66275 311.49628 160.60765 311.7446Q160.54474 311.97937 160.24706 312.15125Q159.96289 312.3153 159.7281 312.2524Q159.49904 312.16815 159.36623 311.9381ZM164.94481 305.163Q165.89793 306.81387 165.79836 307.9539Q165.70448 309.07257 164.50017 309.76788Q163.32292 310.44757 162.30147 309.99084Q161.28001 309.53415 160.3467 307.9801L159.62794 306.7352Q158.68263 305.09787 158.7843 303.9927Q158.8917 302.8662 160.09602 302.1709Q161.2868 301.4834 162.30045 301.92657Q163.30627 302.35623 164.24168 303.94516L164.94481 305.163ZM163.2554 304.42438Q162.5679 303.23358 161.91711 302.88763Q161.27203 302.52032 160.54134 302.9422Q159.82416 303.35626 159.80617 304.10638Q159.79391 304.83514 160.44235 305.95828L161.30954 307.4603Q161.99704 308.65106 162.67126 309.03763Q163.35121 309.40283 164.05486 308.99658Q164.74498 308.59814 164.77077 307.86157Q164.79655 307.12497 164.14603 305.96698L163.2554 304.42438ZM171.00699 301.663Q171.96011 303.31387 171.86052 304.4539Q171.76666 305.57257 170.56235 306.26788Q169.3851 306.94757 168.36365 306.49084Q167.3422 306.03415 166.40887 304.4801L165.69012 303.2352Q164.74481 301.59787 164.84648 300.4927Q164.95387 299.3662 166.15819 298.6709Q167.34898 297.9834 168.36263 298.42657Q169.36845 298.85623 170.30386 300.44516L171.00699 301.663ZM169.31758 300.92438Q168.63008 299.73358 167.9793 299.38763Q167.33421 299.02032 166.6035 299.4422Q165.88632 299.85626 165.86835 300.60638Q165.8561 301.33514 166.50453 302.45828L167.37172 303.9603Q168.05922 305.15106 168.73344 305.53763Q169.41339 305.90283 170.11703 305.49658Q170.80716 305.09814 170.83295 304.36157Q170.85873 303.62497 170.2082 302.46698L169.31758 300.92438Z" fill-rule="nonzero"/><path fill="#757575" d="M184.09637 321.2143L183.16269 321.75336L179.55331 315.50174L178.05733 317.2856L177.56514 316.4331L179.672 313.86356L179.80731 313.78543L184.09637 321.2143ZM191.91766 316.69867L187.07333 319.49554L186.68271 318.81897L187.59956 314.50076Q187.79291 313.52313 187.78284 313.0057Q187.76497 312.47476 187.51497 312.04175Q187.17903 311.45987 186.61627 311.29767Q186.05923 311.11407 185.46384 311.45782Q184.77373 311.85626 184.61569 312.48877Q184.44983 313.10776 184.86389 313.82495L183.9302 314.364Q183.33646 313.3356 183.6266 312.33813Q183.92247 311.31934 185.01852 310.68652Q186.06047 310.08496 186.96835 310.28247Q187.87625 310.47998 188.39969 311.38663Q189.02469 312.46915 188.50594 314.78937L187.76468 318.068L191.47235 315.92737L191.91766 316.69867ZM195.95656 310.163Q196.90968 311.81387 196.8101 312.9539Q196.71625 314.07257 195.51193 314.76788Q194.33467 315.44757 193.31322 314.99084Q192.29176 314.53415 191.35846 312.9801L190.63971 311.73517Q189.6944 310.09784 189.79607 308.9927Q189.90346 307.8662 191.10777 307.1709Q192.29855 306.4834 193.3122 306.92657Q194.31802 307.35623 195.25343 308.94516L195.95656 310.163ZM194.26715 309.42438Q193.57965 308.23358 192.92886 307.88763Q192.2838 307.52032 191.55309 307.9422Q190.8359 308.35626 190.81793 309.10638Q190.80566 309.83514 191.4541 310.95828L192.32129 312.4603Q193.00879 313.65106 193.68303 314.03763Q194.36298 314.40283 195.06662 313.99658Q195.75673 313.59814 195.78252 312.86154Q195.80832 312.12497 195.15778 310.96698L194.26715 309.42438ZM199.03822 311.9381Q198.8976 311.69455 198.93918 311.45404Q198.99426 311.20572 199.27843 311.04166Q199.57613 310.86978 199.81873 310.94623Q200.06133 311.02267 200.20195 311.26624Q200.33476 311.49628 200.27966 311.7446Q200.21675 311.97937 199.91905 312.15125Q199.63489 312.3153 199.40012 312.2524Q199.17104 312.16815 199.03822 311.9381ZM204.61682 305.163Q205.56995 306.81387 205.47037 307.9539Q205.3765 309.07257 204.17218 309.76788Q202.99493 310.44757 201.97348 309.99084Q200.95203 309.53415 200.0187 307.9801L199.29996 306.73517Q198.35464 305.09784 198.45631 303.9927Q198.5637 302.8662 199.76802 302.1709Q200.95882 301.4834 201.97246 301.92657Q202.97829 302.35623 203.9137 303.94516L204.61682 305.163ZM202.92741 304.42438Q202.23991 303.23358 201.58913 302.88763Q200.94405 302.52032 200.21333 302.9422Q199.49615 303.35626 199.47818 304.10638Q199.46593 304.83514 200.11436 305.95828L200.98155 307.4603Q201.66905 308.65106 202.34328 309.03763Q203.02322 309.40283 203.72687 308.99658Q204.41699 308.59814 204.44278 307.86154Q204.46857 307.12497 203.81804 305.96698L202.92741 304.42438ZM210.67899 301.663Q211.63211 303.31387 211.53253 304.4539Q211.43867 305.57257 210.23436 306.26788Q209.05711 306.94757 208.03566 306.49084Q207.0142 306.03415 206.08089 304.4801L205.36214 303.23517Q204.41682 301.59784 204.5185 300.4927Q204.62589 299.3662 205.8302 298.6709Q207.021 297.9834 208.03464 298.42657Q209.04047 298.85623 209.97586 300.44516L210.67899 301.663ZM208.9896 300.92438Q208.3021 299.73358 207.65129 299.38763Q207.00623 299.02032 206.27551 299.4422Q205.55833 299.85626 205.54036 300.60638Q205.5281 301.33514 206.17654 302.45828L207.04373 303.9603Q207.73123 305.15106 208.40546 305.53763Q209.0854 305.90283 209.78905 305.49658Q210.47916 305.09814 210.50496 304.36154Q210.53075 303.62497 209.88022 302.46698L208.9896 300.92438Z" fill-rule="nonzero"/><path fill="#757575" d="M223.76837 321.21432L222.83469 321.7534L219.22531 315.50174L217.72932 317.2856L217.23714 316.43314L219.344 313.86356L219.47931 313.78543L223.76837 321.21432ZM226.17386 309.97446L226.62698 310.7593L226.45107 310.86087Q225.37062 311.52075 225.0883 312.53174Q224.79816 313.52917 225.34615 314.72833Q225.55873 313.72156 226.56007 313.14343Q227.52081 312.58875 228.4933 312.92938Q229.46579 313.27002 230.09079 314.35254Q230.74704 315.4892 230.52303 316.5387Q230.299 317.5882 229.24353 318.19757Q228.18806 318.80695 227.05626 318.37784Q225.93018 317.92743 225.18799 316.6419L224.98486 316.2901Q223.80518 314.24683 224.0462 312.66428Q224.28723 311.08176 225.99794 310.07602L226.17386 309.97446ZM226.86435 314.0142Q226.37721 314.29544 226.13531 314.814Q225.89343 315.33252 225.98886 315.8728L226.18417 316.21112Q226.71542 317.13126 227.4417 317.4517Q228.18149 317.76428 228.7904 317.41272Q229.42639 317.04553 229.52612 316.3745Q229.61804 315.68997 229.18054 314.93222Q228.74304 314.17444 228.11206 313.9253Q227.47327 313.66263 226.86435 314.0142ZM235.62856 310.163Q236.58168 311.81387 236.4821 312.9539Q236.38824 314.07257 235.18393 314.76788Q234.00667 315.44757 232.98521 314.99084Q231.96376 314.53415 231.03046 312.9801L230.3117 311.7352Q229.3664 310.09787 229.46806 308.9927Q229.57545 307.8662 230.77977 307.1709Q231.97055 306.4834 232.98419 306.92657Q233.99002 307.35623 234.92543 308.94516L235.62856 310.163ZM233.93915 309.42438Q233.25165 308.23358 232.60086 307.88763Q231.9558 307.52032 231.22508 307.9422Q230.5079 308.35626 230.48993 309.10638Q230.47766 309.83514 231.1261 310.95828L231.99329 312.4603Q232.68079 313.65106 233.35503 314.03763Q234.03497 314.40283 234.73862 313.99658Q235.42873 313.59814 235.45451 312.86154Q235.48032 312.12497 234.82977 310.96698L233.93915 309.42438ZM238.71022 311.9381Q238.5696 311.69455 238.61118 311.45404Q238.66626 311.20572 238.95044 311.04166Q239.24812 310.86978 239.49072 310.94623Q239.73332 311.02267 239.87395 311.26624Q240.00676 311.49628 239.95166 311.7446Q239.88875 311.97937 239.59106 312.15125Q239.30688 312.3153 239.07211 312.2524Q238.84303 312.16815 238.71022 311.9381ZM244.28882 305.163Q245.24194 306.81387 245.14236 307.9539Q245.0485 309.07257 243.84418 309.76788Q242.66693 310.44757 241.64548 309.99084Q240.62402 309.53415 239.6907 307.9801L238.97195 306.7352Q238.02664 305.09787 238.12831 303.9927Q238.2357 302.8662 239.44002 302.1709Q240.63081 301.4834 241.64445 301.92657Q242.65028 302.35623 243.5857 303.94516L244.28882 305.163ZM242.59941 304.42438Q241.91191 303.23358 241.26112 302.88763Q240.61604 302.52032 239.88533 302.9422Q239.16815 303.35626 239.15018 304.10638Q239.13792 304.83514 239.78636 305.95828L240.65355 307.4603Q241.34105 308.65106 242.01527 309.03763Q242.69522 309.40283 243.39886 308.99658Q244.08899 308.59814 244.11478 307.86154Q244.14056 307.12497 243.49004 305.96698L242.59941 304.42438ZM250.35098 301.663Q251.30411 303.31387 251.20453 304.4539Q251.11067 305.57257 249.90636 306.26788Q248.72911 306.94757 247.70766 306.49084Q246.6862 306.03415 245.75288 304.4801L245.03413 303.2352Q244.08882 301.59787 244.19049 300.4927Q244.29788 299.3662 245.5022 298.6709Q246.693 297.9834 247.70663 298.42657Q248.71246 298.85623 249.64786 300.44516L250.35098 301.663ZM248.66159 300.92438Q247.97409 299.73358 247.32329 299.38763Q246.67822 299.02032 245.94751 299.4422Q245.23033 299.85626 245.21236 300.60638Q245.2001 301.33514 245.84854 302.45828L246.71573 303.9603Q247.40323 305.15106 248.07745 305.53763Q248.7574 305.90283 249.46104 305.49658Q250.15115 305.09814 250.17696 304.36154Q250.20274 303.62497 249.55222 302.46698L248.66159 300.92438Z" fill-rule="nonzero"/><path fill="#757575" d="M265.1995 320.1987L260.35516 322.99557L259.96454 322.31897L260.88138 318.00076Q261.0747 317.02313 261.06467 316.5057Q261.04678 315.97476 260.79678 315.54175Q260.46085 314.9599 259.8981 314.79767Q259.34106 314.61407 258.74567 314.95782Q258.05554 315.35626 257.8975 315.98877Q257.73166 316.60776 258.14572 317.32495L257.21204 317.864Q256.6183 316.8356 256.90842 315.83813Q257.20428 314.81934 258.30035 314.18652Q259.3423 313.58496 260.25018 313.78247Q261.15808 313.98 261.68152 314.88663Q262.30652 315.96915 261.78775 318.28937L261.0465 321.568L264.75418 319.42737L265.1995 320.1987ZM269.23837 313.663Q270.1915 315.31387 270.09192 316.4539Q269.99808 317.57257 268.79373 318.26788Q267.6165 318.94757 266.59503 318.49084Q265.57358 318.03415 264.64026 316.4801L263.9215 315.2352Q262.9762 313.59787 263.07788 312.4927Q263.18527 311.3662 264.3896 310.6709Q265.58038 309.9834 266.59402 310.42657Q267.59985 310.85623 268.53525 312.44516L269.23837 313.663ZM267.54898 312.92438Q266.86148 311.73358 266.2107 311.38763Q265.5656 311.02032 264.8349 311.4422Q264.11774 311.85626 264.09973 312.60638Q264.0875 313.33514 264.73593 314.45828L265.60312 315.9603Q266.29062 317.15106 266.96484 317.53763Q267.64478 317.90283 268.34842 317.49658Q269.03854 317.09814 269.06433 316.36157Q269.09012 315.62497 268.4396 314.46698L267.54898 312.92438ZM275.30057 310.163Q276.2537 311.81387 276.1541 312.9539Q276.06024 314.07257 274.85593 314.76788Q273.67868 315.44757 272.65723 314.99084Q271.63577 314.53415 270.70245 312.9801L269.9837 311.7352Q269.0384 310.09787 269.14005 308.9927Q269.24744 307.8662 270.45178 307.1709Q271.64255 306.4834 272.6562 306.92657Q273.66202 307.35623 274.59744 308.94516L275.30057 310.163ZM273.61115 309.42438Q272.92365 308.23358 272.27286 307.88763Q271.62778 307.52032 270.8971 307.9422Q270.1799 308.35626 270.16193 309.10638Q270.14966 309.83514 270.7981 310.95828L271.66528 312.4603Q272.35278 313.65106 273.027 314.03763Q273.70697 314.40283 274.4106 313.99658Q275.10074 313.59814 275.12653 312.86157Q275.1523 312.12497 274.50177 310.96698L273.61115 309.42438ZM278.38223 311.9381Q278.2416 311.69455 278.28317 311.45404Q278.33826 311.20572 278.62244 311.04166Q278.92014 310.86978 279.16272 310.94623Q279.40533 311.02267 279.54596 311.26624Q279.67877 311.49628 279.62366 311.7446Q279.56076 311.97937 279.26306 312.15125Q278.97888 312.3153 278.7441 312.2524Q278.51505 312.16815 278.38223 311.9381ZM283.96082 305.163Q284.91394 306.81387 284.81436 307.9539Q284.7205 309.07257 283.51617 309.76788Q282.33893 310.44757 281.31747 309.99084Q280.29602 309.53415 279.3627 307.9801L278.64395 306.7352Q277.69864 305.09787 277.80032 303.9927Q277.9077 302.8662 279.11203 302.1709Q280.3028 301.4834 281.31644 301.92657Q282.32227 302.35623 283.2577 303.94516L283.96082 305.163ZM282.2714 304.42438Q281.5839 303.23358 280.9331 302.88763Q280.28806 302.52032 279.55734 302.9422Q278.84015 303.35626 278.82217 304.10638Q278.8099 304.83514 279.45834 305.95828L280.32553 307.4603Q281.01303 308.65106 281.6873 309.03763Q282.36722 309.40283 283.07086 308.99658Q283.761 308.59814 283.78677 307.86157Q283.81256 307.12497 283.16202 305.96698L282.2714 304.42438ZM290.02298 301.663Q290.9761 303.31387 290.87653 304.4539Q290.78268 305.57257 289.57837 306.26788Q288.4011 306.94757 287.37964 306.49084Q286.3582 306.03415 285.4249 304.4801L284.70615 303.2352Q283.76083 301.59787 283.8625 300.4927Q283.96988 299.3662 285.1742 298.6709Q286.365 297.9834 287.37863 298.42657Q288.38446 298.85623 289.31985 300.44516L290.02298 301.663ZM288.3336 300.92438Q287.6461 299.73358 286.9953 299.38763Q286.35022 299.02032 285.6195 299.4422Q284.90234 299.85626 284.88437 300.60638Q284.8721 301.33514 285.52054 302.45828L286.38773 303.9603Q287.07523 305.15106 287.74945 305.53763Q288.4294 305.90283 289.13306 305.49658Q289.82315 305.09814 289.84894 304.36157Q289.87473 303.62497 289.2242 302.46698L288.3336 300.92438Z" fill-rule="nonzero"/><path fill="#757575" d="M304.8715 320.1987L300.02716 322.99557L299.63654 322.31897L300.55338 318.00076Q300.7467 317.02313 300.73666 316.5057Q300.71878 315.97476 300.46878 315.54175Q300.13284 314.9599 299.5701 314.79767Q299.01306 314.61407 298.41766 314.95782Q297.72754 315.35626 297.5695 315.98877Q297.40366 316.60776 297.81772 317.32495L296.88403 317.864Q296.29028 316.8356 296.5804 315.83813Q296.87628 314.81934 297.97235 314.18652Q299.01428 313.58496 299.92218 313.78247Q300.83008 313.98 301.35352 314.88663Q301.97852 315.96915 301.45975 318.2894L300.7185 321.56802L304.42618 319.4274L304.8715 320.1987ZM308.62442 314.7302L309.65283 314.13644L310.09033 314.89423L309.06192 315.48798L310.0541 317.2065L309.12042 317.74557L308.12823 316.02704L304.75885 317.97235L304.43854 317.41757L304.78714 310.39633L305.78848 309.8182L308.62442 314.7302ZM305.39035 316.59738L307.69073 315.26926L305.597 311.6428L305.59238 311.91608L305.39035 316.59738ZM314.97256 310.163Q315.9257 311.81387 315.8261 312.9539Q315.73224 314.07257 314.52792 314.76788Q313.35068 315.44757 312.32922 314.99084Q311.30777 314.53415 310.37445 312.9801L309.6557 311.7352Q308.7104 310.09787 308.81204 308.9927Q308.91943 307.8662 310.12378 307.1709Q311.31454 306.4834 312.3282 306.92657Q313.334 307.35623 314.26944 308.94516L314.97256 310.163ZM313.28314 309.42438Q312.59564 308.23358 311.94485 307.88763Q311.29977 307.52032 310.5691 307.9422Q309.8519 308.35626 309.83392 309.10638Q309.82166 309.83514 310.4701 310.95828L311.33728 312.4603Q312.02478 313.65106 312.699 314.03763Q313.37897 314.40283 314.0826 313.99658Q314.77274 313.59814 314.79852 312.86157Q314.8243 312.12497 314.17377 310.96698L313.28314 309.42438ZM318.05423 311.9381Q317.9136 311.69455 317.95517 311.45404Q318.01025 311.20572 318.29443 311.04166Q318.59213 310.86978 318.83472 310.94623Q319.07733 311.02267 319.21796 311.26624Q319.35077 311.49628 319.29565 311.7446Q319.23276 311.97937 318.93506 312.15125Q318.65088 312.3153 318.4161 312.2524Q318.18704 312.16815 318.05423 311.9381ZM323.6328 305.163Q324.58594 306.81387 324.48636 307.9539Q324.3925 309.07257 323.18817 309.76788Q322.01093 310.44757 320.98947 309.99084Q319.96802 309.53415 319.0347 307.9801L318.31595 306.7352Q317.37064 305.09787 317.47232 303.9927Q317.5797 302.8662 318.78403 302.1709Q319.9748 301.4834 320.98843 301.92657Q321.99426 302.35623 322.9297 303.94516L323.6328 305.163ZM321.9434 304.42438Q321.2559 303.23358 320.6051 302.88763Q319.96005 302.52032 319.22934 302.9422Q318.51215 303.35626 318.49417 304.10638Q318.4819 304.83514 319.13034 305.95828L319.99753 307.4603Q320.68503 308.65106 321.35928 309.03763Q322.0392 309.40283 322.74286 308.99658Q323.43298 308.59814 323.45877 307.86157Q323.48456 307.12497 322.834 305.96698L321.9434 304.42438ZM329.69498 301.663Q330.6481 303.31387 330.54852 304.4539Q330.45468 305.57257 329.25037 306.26788Q328.0731 306.94757 327.05164 306.49084Q326.03018 306.03415 325.0969 304.4801L324.37814 303.2352Q323.43283 301.59787 323.5345 300.4927Q323.64188 299.3662 324.8462 298.6709Q326.037 297.9834 327.05063 298.42657Q328.05646 298.85623 328.99185 300.44516L329.69498 301.663ZM328.00558 300.92438Q327.31808 299.73358 326.6673 299.38763Q326.02222 299.02032 325.2915 299.4422Q324.57434 299.85626 324.55637 300.60638Q324.5441 301.33514 325.19254 302.45828L326.05972 303.9603Q326.74722 305.15106 327.42145 305.53763Q328.1014 305.90283 328.80505 305.49658Q329.49515 305.09814 329.52094 304.36157Q329.54672 303.62497 328.8962 302.46698L328.00558 300.92438Z" fill-rule="nonzero"/><path fill="#757575" d="M344.5435 320.1987L339.69916 322.99557L339.30853 322.31897L340.22537 318.00076Q340.4187 317.02313 340.40866 316.5057Q340.39078 315.97476 340.14078 315.54175Q339.80484 314.9599 339.2421 314.79767Q338.68506 314.61407 338.08966 314.95782Q337.39954 315.35626 337.2415 315.9888Q337.07565 316.60776 337.48972 317.32495L336.55603 317.864Q335.96228 316.8356 336.2524 315.83813Q336.54828 314.81934 337.64435 314.18652Q338.68628 313.58496 339.59418 313.78247Q340.50208 313.98 341.0255 314.88663Q341.6505 315.96915 341.13174 318.2894L340.3905 321.56802L344.09818 319.4274L344.5435 320.1987ZM347.0976 311.43503Q347.4179 311.98984 347.3702 312.59473Q347.3225 313.19962 346.97598 313.72443Q347.68494 313.63986 348.30447 313.9317Q348.91623 314.21 349.2678 314.8189Q349.81467 315.7661 349.50107 316.723Q349.1932 317.6585 348.13776 318.26788Q347.06876 318.88507 346.0911 318.69174Q345.11917 318.47705 344.5723 317.52985Q344.22073 316.92093 344.27206 316.25983Q344.31555 315.58517 344.7568 315.00568Q344.12903 315.04337 343.59488 314.7744Q343.0607 314.50546 342.7404 313.95065Q342.20132 313.01697 342.48422 312.13196Q342.7593 311.2334 343.74713 310.6631Q344.7214 310.1006 345.6371 310.31165Q346.55853 310.50134 347.0976 311.43503ZM348.31848 315.3309Q347.9591 314.70847 347.34793 314.55612Q346.72894 314.3903 346.09296 314.75748Q345.45697 315.12466 345.2911 315.74362Q345.13098 316.34128 345.49817 316.97726Q345.85754 317.5997 346.44736 317.7463Q347.0294 317.8794 347.69244 317.49658Q348.34195 317.12158 348.5099 316.53748Q348.67786 315.95337 348.31848 315.3309ZM344.19244 311.4344Q343.63763 311.7547 343.48892 312.30966Q343.34595 312.84326 343.6897 313.43866Q344.01 313.99344 344.55142 314.14996Q345.09283 314.3065 345.64764 313.98618Q346.21597 313.65805 346.35114 313.1109Q346.4863 312.56375 346.166 312.00897Q345.83786 311.44064 345.28293 311.29193Q344.72015 311.1297 344.19244 311.4344ZM354.64456 310.163Q355.5977 311.81387 355.4981 312.9539Q355.40424 314.07257 354.19992 314.76788Q353.02267 315.44757 352.00122 314.99084Q350.97977 314.53415 350.04645 312.9801L349.3277 311.7352Q348.3824 310.09787 348.48404 308.9927Q348.59143 307.8662 349.79578 307.1709Q350.98654 306.4834 352.00018 306.92657Q353.006 307.35623 353.94144 308.94516L354.64456 310.163ZM352.95514 309.42438Q352.26764 308.23358 351.61685 307.88763Q350.97177 307.52032 350.2411 307.9422Q349.5239 308.35626 349.50592 309.10638Q349.49365 309.83514 350.1421 310.95828L351.00928 312.4603Q351.69678 313.65106 352.371 314.03763Q353.05096 314.40283 353.7546 313.99658Q354.44473 313.59814 354.47052 312.86157Q354.4963 312.12497 353.84576 310.96698L352.95514 309.42438ZM357.72623 311.9381Q357.5856 311.69455 357.62717 311.45404Q357.68225 311.20572 357.96643 311.04166Q358.26413 310.86978 358.5067 310.94623Q358.74933 311.02267 358.88995 311.26624Q359.02277 311.49628 358.96765 311.7446Q358.90475 311.97937 358.60706 312.15125Q358.32288 312.3153 358.0881 312.2524Q357.85904 312.16815 357.72623 311.9381ZM363.3048 305.163Q364.25793 306.81387 364.15836 307.9539Q364.06448 309.07257 362.86017 309.76788Q361.68292 310.44757 360.66147 309.99084Q359.64 309.53415 358.7067 307.9801L357.98795 306.7352Q357.04263 305.09787 357.14432 303.9927Q357.2517 302.8662 358.45602 302.1709Q359.6468 301.4834 360.66043 301.92657Q361.66626 302.35623 362.60168 303.94516L363.3048 305.163ZM361.6154 304.42438Q360.9279 303.23358 360.2771 302.88763Q359.63205 302.52032 358.90134 302.9422Q358.18414 303.35626 358.16617 304.10638Q358.1539 304.83514 358.80234 305.95828L359.66953 307.4603Q360.35703 308.65106 361.03128 309.03763Q361.7112 309.40283 362.41486 308.99658Q363.10498 308.59814 363.13077 307.86157Q363.15656 307.12497 362.506 305.96698L361.6154 304.42438ZM369.36697 301.663Q370.3201 303.31387 370.22052 304.4539Q370.12668 305.57257 368.92236 306.26788Q367.7451 306.94757 366.72363 306.49084Q365.70218 306.03415 364.7689 304.4801L364.05014 303.2352Q363.10483 301.59787 363.20648 300.4927Q363.31387 299.3662 364.5182 298.6709Q365.70898 297.9834 366.72263 298.42657Q367.72845 298.85623 368.66385 300.44516L369.36697 301.663ZM367.67758 300.92438Q366.99008 299.73358 366.3393 299.38763Q365.6942 299.02032 364.9635 299.4422Q364.24634 299.85626 364.22836 300.60638Q364.2161 301.33514 364.86453 302.45828L365.73172 303.9603Q366.41922 305.15106 367.09344 305.53763Q367.7734 305.90283 368.47705 305.49658Q369.16714 305.09814 369.19293 304.36157Q369.21875 303.62497 368.5682 302.46698L367.67758 300.92438Z" fill-rule="nonzero"/><path fill="#757575" d="M378.33942 318.05228L379.04306 317.64603Q379.71182 317.24188 379.8954 316.68484Q380.07898 316.1278 379.74304 315.54593Q378.99304 314.2469 377.694 314.9969Q377.08508 315.34845 376.92285 315.91122Q376.77414 316.46616 377.10226 317.0345L376.15506 317.58136Q375.64725 316.7018 375.9473 315.75278Q376.26086 314.7959 377.2487 314.2256Q378.29062 313.62402 379.20633 313.83508Q380.12204 314.04614 380.69235 315.03394Q380.9736 315.5211 380.92017 316.1473Q380.86676 316.77353 380.4583 317.31607Q381.1766 317.15396 381.7592 317.413Q382.3553 317.66425 382.7303 318.31375Q383.3006 319.30157 382.9948 320.27197Q382.68124 321.22882 381.6393 321.83038Q380.6109 322.42413 379.61972 322.23862Q378.6421 322.0453 378.11084 321.12512L379.05804 320.57825Q379.39398 321.16013 379.97598 321.29318Q380.558 321.42627 381.20752 321.05127Q381.8841 320.66064 382.0328 320.10568Q382.18723 319.5294 381.8044 318.86636Q381.43723 318.23038 380.8495 318.11862Q380.25394 317.99338 379.48837 318.41733L378.78473 318.82358L378.33942 318.05228ZM390.27765 316.6987L385.43332 319.49557L385.0427 318.81897L385.95956 314.50076Q386.1529 313.52313 386.14282 313.0057Q386.12497 312.47476 385.87497 312.04175Q385.53903 311.4599 384.97626 311.29767Q384.41922 311.11407 383.82382 311.45782Q383.13373 311.85626 382.97568 312.4888Q382.8098 313.10776 383.22388 313.82495L382.2902 314.364Q381.69644 313.3356 381.9866 312.33813Q382.28244 311.31934 383.3785 310.68652Q384.42044 310.08496 385.32834 310.2825Q386.23624 310.48 386.75967 311.38663Q387.38467 312.46915 386.8659 314.7894L386.12466 318.06802L389.83234 315.9274L390.27765 316.6987ZM394.31656 310.163Q395.26968 311.81387 395.1701 312.9539Q395.07623 314.07257 393.87192 314.76788Q392.69467 315.44757 391.67322 314.99084Q390.65176 314.53415 389.71844 312.9801L388.9997 311.7352Q388.05438 310.09787 388.15607 308.9927Q388.26346 307.8662 389.46777 307.1709Q390.65854 306.4834 391.67218 306.92657Q392.678 307.35623 393.61343 308.94516L394.31656 310.163ZM392.62714 309.42438Q391.93964 308.23358 391.28885 307.88763Q390.64377 307.52032 389.9131 307.9422Q389.1959 308.35626 389.17792 309.10638Q389.16565 309.83514 389.8141 310.95828L390.68127 312.4603Q391.36877 313.65106 392.043 314.03763Q392.72296 314.40283 393.4266 313.99658Q394.11673 313.59814 394.14252 312.86157Q394.1683 312.12497 393.51776 310.96698L392.62714 309.42438ZM397.39822 311.9381Q397.2576 311.69455 397.29916 311.45404Q397.35425 311.20572 397.63843 311.04166Q397.93613 310.86978 398.1787 310.94623Q398.42133 311.02267 398.56195 311.26624Q398.69476 311.49628 398.63965 311.7446Q398.57675 311.97937 398.27905 312.15125Q397.99487 312.3153 397.7601 312.2524Q397.53104 312.16815 397.39822 311.9381ZM402.9768 305.163Q403.92993 306.81387 403.83035 307.9539Q403.73648 309.07257 402.53217 309.76788Q401.35492 310.44757 400.33347 309.99084Q399.312 309.53415 398.3787 307.9801L397.65994 306.7352Q396.71463 305.09787 396.8163 303.9927Q396.9237 302.8662 398.12802 302.1709Q399.3188 301.4834 400.33243 301.92657Q401.33826 302.35623 402.27368 303.94516L402.9768 305.163ZM401.28738 304.42438Q400.59988 303.23358 399.9491 302.88763Q399.30405 302.52032 398.57333 302.9422Q397.85614 303.35626 397.83817 304.10638Q397.8259 304.83514 398.47433 305.95828L399.34152 307.4603Q400.02902 308.65106 400.70328 309.03763Q401.3832 309.40283 402.08685 308.99658Q402.77698 308.59814 402.80276 307.86157Q402.82855 307.12497 402.178 305.96698L401.28738 304.42438ZM409.03897 301.663Q409.9921 303.31387 409.89252 304.4539Q409.79868 305.57257 408.59436 306.26788Q407.41708 306.94757 406.39563 306.49084Q405.37418 306.03415 404.4409 304.4801L403.72214 303.2352Q402.77682 301.59787 402.87848 300.4927Q402.98587 299.3662 404.1902 298.6709Q405.38098 297.9834 406.39462 298.42657Q407.40045 298.85623 408.33585 300.44516L409.03897 301.663ZM407.34958 300.92438Q406.66208 299.73358 406.0113 299.38763Q405.3662 299.02032 404.6355 299.4422Q403.91833 299.85626 403.90036 300.60638Q403.8881 301.33514 404.53653 302.45828L405.40372 303.9603Q406.09122 305.15106 406.76544 305.53763Q407.4454 305.90283 408.14905 305.49658Q408.83914 305.09814 408.86493 304.36157Q408.89075 303.62497 408.2402 302.46698L407.34958 300.92438Z" fill-rule="nonzero"/><path fill="#757575" d="M418.0114 318.05228L418.71506 317.64603Q419.38382 317.24188 419.56738 316.68484Q419.75098 316.1278 419.41504 315.54593Q418.66504 314.2469 417.366 314.9969Q416.75708 315.34845 416.59485 315.91122Q416.44614 316.4662 416.77426 317.03452L415.82706 317.5814Q415.31924 316.7018 415.6193 315.75278Q415.93286 314.7959 416.9207 314.2256Q417.96262 313.62402 418.87833 313.83508Q419.79404 314.04614 420.36435 315.03394Q420.6456 315.5211 420.59216 316.1473Q420.53876 316.77353 420.1303 317.31607Q420.8486 317.15396 421.43118 317.413Q422.02728 317.66425 422.40228 318.31375Q422.9726 319.30157 422.6668 320.27197Q422.35324 321.22882 421.3113 321.83038Q420.2829 322.42413 419.29172 322.23862Q418.3141 322.0453 417.78284 321.12512L418.73004 320.57825Q419.06598 321.16013 419.64798 321.29318Q420.23 321.42627 420.87952 321.05127Q421.55612 320.66064 421.7048 320.10568Q421.85922 319.5294 421.4764 318.86636Q421.10922 318.23038 420.52148 318.11862Q419.92593 317.99338 419.16037 318.41736L418.45673 318.8236L418.0114 318.05228ZM424.53384 309.9745L424.98697 310.7593L424.81107 310.86087Q423.73062 311.52075 423.44827 312.53174Q423.15814 313.5292 423.70615 314.72836Q423.9187 313.72156 424.92004 313.14343Q425.8808 312.58875 426.8533 312.92938Q427.82578 313.27002 428.45078 314.35257Q429.10703 315.48923 428.883 316.5387Q428.659 317.5882 427.60352 318.19757Q426.54807 318.80695 425.41626 318.37787Q424.29016 317.92743 423.54797 316.64194L423.34485 316.2901Q422.16516 314.24683 422.4062 312.66428Q422.64722 311.08176 424.35794 310.07605L424.53384 309.9745ZM425.22433 314.0142Q424.73718 314.29544 424.4953 314.814Q424.25342 315.33252 424.34885 315.87283L424.54416 316.21112Q425.0754 317.13126 425.80167 317.4517Q426.54147 317.7643 427.1504 317.41275Q427.78638 317.04556 427.8861 316.37454Q427.97803 315.69 427.54053 314.93222Q427.10303 314.17444 426.47205 313.9253Q425.83325 313.66263 425.22433 314.0142ZM433.98856 310.163Q434.94168 311.81387 434.8421 312.9539Q434.74823 314.07257 433.5439 314.76788Q432.36667 315.44757 431.3452 314.99088Q430.32376 314.53415 429.39044 312.9801L428.6717 311.7352Q427.72638 310.09787 427.82806 308.9927Q427.93546 307.8662 429.13977 307.1709Q430.33054 306.4834 431.34418 306.92657Q432.35 307.35623 433.28543 308.94516L433.98856 310.163ZM432.29913 309.42438Q431.61163 308.23358 430.96085 307.88763Q430.31577 307.52032 429.58508 307.9422Q428.8679 308.35626 428.8499 309.10638Q428.83765 309.83514 429.48608 310.95828L430.35327 312.4603Q431.04077 313.65106 431.715 314.03763Q432.39496 314.40283 433.0986 313.99658Q433.78873 313.59814 433.8145 312.86157Q433.8403 312.125 433.18976 310.96698L432.29913 309.42438ZM437.07022 311.9381Q436.9296 311.69455 436.97116 311.45404Q437.02625 311.20572 437.31042 311.04166Q437.60812 310.86978 437.8507 310.94623Q438.09332 311.02267 438.23395 311.26624Q438.36676 311.49628 438.31165 311.7446Q438.24875 311.97937 437.95105 312.15125Q437.66687 312.3153 437.4321 312.2524Q437.20303 312.16815 437.07022 311.9381ZM442.6488 305.163Q443.60193 306.81387 443.50235 307.9539Q443.40848 309.07257 442.20416 309.76788Q441.02692 310.44757 440.00546 309.99088Q438.984 309.53415 438.0507 307.9801L437.33194 306.7352Q436.38663 305.09787 436.4883 303.9927Q436.5957 302.8662 437.80002 302.1709Q438.99078 301.4834 440.00443 301.92657Q441.01025 302.35623 441.94568 303.94516L442.6488 305.163ZM440.95938 304.42438Q440.27188 303.23358 439.6211 302.88763Q438.97604 302.52032 438.24533 302.9422Q437.52814 303.35626 437.51016 304.10638Q437.4979 304.83514 438.14633 305.95828L439.01352 307.4603Q439.70102 308.65106 440.37527 309.03763Q441.0552 309.40283 441.75885 308.99658Q442.44897 308.59814 442.47476 307.86157Q442.50055 307.125 441.85 305.96698L440.95938 304.42438ZM448.71097 301.663Q449.6641 303.31387 449.5645 304.4539Q449.47067 305.57257 448.26636 306.26788Q447.08908 306.94757 446.06763 306.49088Q445.04617 306.03415 444.11288 304.4801L443.39413 303.2352Q442.44882 301.59787 442.55048 300.4927Q442.65787 299.3662 443.86218 298.6709Q445.05298 297.9834 446.06662 298.42657Q447.07245 298.85623 448.00784 300.44516L448.71097 301.663ZM447.02158 300.92438Q446.33408 299.73358 445.6833 299.38763Q445.0382 299.02032 444.3075 299.4422Q443.59033 299.85626 443.57236 300.60638Q443.5601 301.33514 444.20853 302.45828L445.0757 303.9603Q445.7632 305.15106 446.43744 305.53763Q447.1174 305.90283 447.82104 305.49658Q448.51114 305.09814 448.53693 304.36157Q448.56274 303.625 447.9122 302.46698L447.02158 300.92438Z" fill-rule="nonzero"/><path fill="#757575" d="M461.25024 318.23022L462.27863 317.63647L462.71613 318.39423L461.68774 318.98798L462.67993 320.7065L461.74625 321.24557L460.75406 319.52704L457.38467 321.47235L457.06436 320.91757L457.41296 313.89636L458.4143 313.31824L461.25024 318.23022ZM458.01617 320.0974L460.31656 318.7693L458.2228 315.1428L458.2182 315.41608L458.01617 320.0974ZM467.59836 313.663Q468.55148 315.31387 468.4519 316.4539Q468.35806 317.57257 467.15375 318.26788Q465.97647 318.94757 464.95502 318.49088Q463.93356 318.03415 463.00024 316.4801L462.2815 315.2352Q461.33618 313.59787 461.43787 312.4927Q461.54526 311.3662 462.74957 310.6709Q463.94037 309.9834 464.954 310.4266Q465.95984 310.85623 466.89523 312.44516L467.59836 313.663ZM465.90897 312.92438Q465.22147 311.73358 464.57068 311.38763Q463.9256 311.02036 463.1949 311.44223Q462.47772 311.8563 462.45975 312.60638Q462.44748 313.33514 463.09592 314.45828L463.9631 315.9603Q464.6506 317.1511 465.32483 317.53763Q466.00476 317.90283 466.70844 317.49658Q467.39853 317.09814 467.42432 316.36157Q467.4501 315.625 466.7996 314.46698L465.90897 312.92438ZM473.66055 310.163Q474.61368 311.81387 474.5141 312.9539Q474.42023 314.07257 473.2159 314.76788Q472.03867 315.44757 471.0172 314.99088Q469.99576 314.53415 469.06244 312.9801L468.3437 311.7352Q467.39838 310.09787 467.50006 308.9927Q467.60745 307.8662 468.81177 307.1709Q470.00253 306.4834 471.01617 306.9266Q472.022 307.35623 472.95743 308.94516L473.66055 310.163ZM471.97113 309.42438Q471.28363 308.23358 470.63284 307.88763Q469.98776 307.52036 469.25708 307.94223Q468.5399 308.3563 468.5219 309.10638Q468.50964 309.83514 469.15808 310.95828L470.02527 312.4603Q470.71277 313.6511 471.387 314.03763Q472.06696 314.40283 472.7706 313.99658Q473.46072 313.59814 473.4865 312.86157Q473.5123 312.125 472.86176 310.96698L471.97113 309.42438ZM476.74222 311.9381Q476.6016 311.69455 476.64316 311.45404Q476.69824 311.20572 476.98242 311.04166Q477.28012 310.86978 477.5227 310.94623Q477.76532 311.02267 477.90594 311.26624Q478.03876 311.49628 477.98364 311.7446Q477.92075 311.97937 477.62305 312.15125Q477.33887 312.3153 477.1041 312.2524Q476.87503 312.16815 476.74222 311.9381ZM482.3208 305.163Q483.27393 306.81387 483.17435 307.9539Q483.08047 309.07257 481.87616 309.76788Q480.6989 310.44757 479.67746 309.99088Q478.656 309.53415 477.7227 307.9801L477.00394 306.7352Q476.05862 305.09787 476.1603 303.9927Q476.2677 302.8662 477.47202 302.1709Q478.66278 301.4834 479.67642 301.9266Q480.68225 302.35623 481.61768 303.94516L482.3208 305.163ZM480.6314 304.42438Q479.9439 303.23358 479.2931 302.88763Q478.64804 302.52036 477.91733 302.94223Q477.20013 303.3563 477.18216 304.10638Q477.1699 304.83514 477.81833 305.95828L478.68552 307.4603Q479.37302 308.6511 480.04727 309.03763Q480.7272 309.40283 481.43085 308.99658Q482.12097 308.59814 482.14676 307.86157Q482.17255 307.125 481.52203 305.96698L480.6314 304.42438ZM488.38297 301.663Q489.3361 303.31387 489.2365 304.4539Q489.14267 305.57257 487.93835 306.26788Q486.76108 306.94757 485.73962 306.49088Q484.71817 306.03415 483.78488 304.4801L483.06613 303.2352Q482.12082 301.59787 482.22247 300.4927Q482.32986 299.3662 483.53418 298.6709Q484.72498 297.9834 485.73862 298.4266Q486.74445 298.85623 487.67984 300.44516L488.38297 301.663ZM486.69357 300.92438Q486.00607 299.73358 485.3553 299.38763Q484.7102 299.02036 483.9795 299.44223Q483.26233 299.8563 483.24435 300.60638Q483.2321 301.33514 483.88052 302.45828L484.7477 303.9603Q485.4352 305.1511 486.10944 305.53763Q486.7894 305.90283 487.49304 305.49658Q488.18314 305.09814 488.20892 304.36157Q488.23474 303.625 487.5842 302.46698L486.69357 300.92438Z" fill-rule="nonzero"/><path fill="#757575" d="M500.92224 318.2302L501.95065 317.63644L502.38815 318.39423L501.35974 318.98798L502.35193 320.70648L501.41824 321.24554L500.42606 319.52704L497.0567 321.47235L496.7364 320.91754L497.08496 313.89633L498.0863 313.3182L500.92224 318.2302ZM497.6882 320.09738L499.98856 318.76926L497.8948 315.1428L497.89023 315.41608L497.6882 320.09738ZM506.9844 314.73022L508.01282 314.13647L508.45032 314.89423L507.4219 315.48798L508.4141 317.2065L507.4804 317.74557L506.48822 316.02704L503.11884 317.97235L502.79852 317.41757L503.14713 310.39636L504.14847 309.81824L506.9844 314.73022ZM503.75034 316.5974L506.05072 315.2693L503.95697 311.6428L503.95236 311.91608L503.75034 316.5974ZM513.3325 310.163Q514.28564 311.81387 514.1861 312.9539Q514.0922 314.07257 512.8879 314.76788Q511.71066 315.44757 510.6892 314.99088Q509.66776 314.53415 508.73444 312.9801L508.0157 311.7352Q507.07037 310.09787 507.17206 308.9927Q507.27945 307.8662 508.48376 307.1709Q509.67453 306.4834 510.68817 306.9266Q511.694 307.35623 512.6294 308.94516L513.3325 310.163ZM511.64313 309.42438Q510.95563 308.23358 510.30484 307.88763Q509.65976 307.52036 508.92908 307.94223Q508.21188 308.3563 508.1939 309.10638Q508.18164 309.83514 508.83008 310.95828L509.69727 312.4603Q510.38477 313.6511 511.059 314.03763Q511.73895 314.40283 512.44257 313.99658Q513.1327 313.59814 513.1585 312.86157Q513.18427 312.125 512.53375 310.96698L511.64313 309.42438ZM516.4142 311.9381Q516.27356 311.69455 516.3151 311.45404Q516.37024 311.20572 516.6544 311.04166Q516.9521 310.86978 517.1947 310.94623Q517.4373 311.02267 517.57794 311.26624Q517.71075 311.49628 517.65564 311.7446Q517.5927 311.97937 517.29504 312.15125Q517.01086 312.3153 516.77606 312.2524Q516.547 312.16815 516.4142 311.9381ZM521.9928 305.163Q522.9459 306.81387 522.8463 307.9539Q522.7525 309.07257 521.54816 309.76788Q520.3709 310.44757 519.3494 309.99088Q518.328 309.53415 517.3947 307.9801L516.67596 306.7352Q515.73065 305.09787 515.8323 303.9927Q515.9397 302.8662 517.144 302.1709Q518.3348 301.4834 519.34845 301.9266Q520.35425 302.35623 521.2897 303.94516L521.9928 305.163ZM520.3034 304.42438Q519.6159 303.23358 518.9651 302.88763Q518.32 302.52036 517.5893 302.94223Q516.87213 303.3563 516.8542 304.10638Q516.8419 304.83514 517.49036 305.95828L518.35754 307.4603Q519.04504 308.6511 519.71924 309.03763Q520.39923 309.40283 521.10284 308.99658Q521.79297 308.59814 521.8187 307.86157Q521.84454 307.125 521.19403 305.96698L520.3034 304.42438ZM528.055 301.663Q529.0081 303.31387 528.9085 304.4539Q528.81464 305.57257 527.61035 306.26788Q526.4331 306.94757 525.4116 306.49088Q524.3902 306.03415 523.45685 304.4801L522.7381 303.2352Q521.7928 301.59787 521.8945 300.4927Q522.0019 299.3662 523.2062 298.6709Q524.397 297.9834 525.4106 298.4266Q526.41644 298.85623 527.35187 300.44516L528.055 301.663ZM526.36554 300.92438Q525.67804 299.73358 525.0273 299.38763Q524.3822 299.02036 523.6515 299.44223Q522.9343 299.8563 522.9163 300.60638Q522.90405 301.33514 523.5525 302.45828L524.4197 303.9603Q525.1072 305.1511 525.78143 305.53763Q526.46136 305.90283 527.16504 305.49658Q527.85516 305.09814 527.8809 304.36157Q527.90674 303.625 527.25616 302.46698L526.36554 300.92438Z" fill-rule="nonzero"/><path fill="#757575" d="M540.59424 318.23022L541.6226 317.63647L542.0601 318.39423L541.03174 318.98798L542.0239 320.7065L541.0902 321.24557L540.098 319.52704L536.72864 321.47235L536.4083 320.91757L536.75696 313.89636L537.7583 313.31824L540.59424 318.23022ZM537.36017 320.0974L539.6605 318.7693L537.5668 315.1428L537.5622 315.41608L537.36017 320.0974ZM545.4576 311.43503Q545.7779 311.98984 545.73016 312.59473Q545.6825 313.19962 545.336 313.72443Q546.0449 313.63986 546.6645 313.9317Q547.2762 314.21 547.62775 314.8189Q548.1746 315.76614 547.8611 316.723Q547.5532 317.6585 546.49774 318.26788Q545.4287 318.88507 544.4511 318.69174Q543.4792 318.47708 542.9323 317.52985Q542.58075 316.92093 542.632 316.25983Q542.67554 315.58517 543.11676 315.00568Q542.489 315.04337 541.95483 314.7744Q541.4207 314.50546 541.1004 313.95065Q540.56134 313.01697 540.84424 312.13196Q541.1193 311.23343 542.1071 310.66312Q543.08136 310.10062 543.9971 310.31165Q544.9185 310.50134 545.4576 311.43503ZM546.67847 315.33093Q546.3191 314.70847 545.7079 314.55615Q545.0889 314.3903 544.45294 314.75748Q543.81696 315.12466 543.6511 315.74365Q543.49097 316.34128 543.85815 316.97726Q544.2175 317.59973 544.8074 317.74634Q545.38934 317.8794 546.0524 317.49658Q546.70197 317.12158 546.8699 316.53748Q547.03784 315.95337 546.67847 315.33093ZM542.5524 311.43442Q541.9976 311.75473 541.84894 312.30966Q541.70593 312.84326 542.0497 313.43866Q542.37 313.99347 542.91144 314.14996Q543.4528 314.3065 544.0076 313.98618Q544.576 313.65805 544.7111 313.1109Q544.8463 312.56378 544.526 312.00897Q544.1979 311.44064 543.6429 311.29196Q543.08014 311.12973 542.5524 311.43442ZM553.0045 310.16302Q553.95764 311.81387 553.8581 312.9539Q553.7642 314.07257 552.55994 314.76788Q551.3826 315.44757 550.3612 314.99088Q549.3397 314.53415 548.40643 312.9801L547.6877 311.7352Q546.7424 310.09787 546.84406 308.9927Q546.9514 307.86624 548.15576 307.17093Q549.34656 306.48343 550.36017 306.9266Q551.366 307.35623 552.3014 308.94516L553.0045 310.16302ZM551.3151 309.42438Q550.6276 308.23358 549.97687 307.88763Q549.3318 307.52036 548.6011 307.94223Q547.8839 308.3563 547.8659 309.10638Q547.85364 309.83514 548.5021 310.95828L549.36926 312.4603Q550.05676 313.6511 550.731 314.03763Q551.41095 314.40283 552.1146 313.99658Q552.8047 313.59814 552.8305 312.86157Q552.85626 312.125 552.20575 310.96698L551.3151 309.42438ZM556.0862 311.9381Q555.94556 311.69455 555.9871 311.45404Q556.04224 311.20572 556.3264 311.04166Q556.6241 310.86978 556.8667 310.94623Q557.1093 311.02267 557.24994 311.26624Q557.38275 311.49628 557.32764 311.7446Q557.2647 311.9794 556.96704 312.15128Q556.68286 312.31534 556.44806 312.2524Q556.219 312.16815 556.0862 311.9381ZM561.6648 305.16302Q562.6179 306.81387 562.5183 307.9539Q562.4245 309.07257 561.22015 309.76788Q560.0429 310.44757 559.0214 309.99088Q558.0 309.53415 557.0667 307.9801L556.34796 306.7352Q555.40265 305.09787 555.5043 303.9927Q555.6117 302.86624 556.816 302.17093Q558.0068 301.48343 559.02045 301.9266Q560.02625 302.35623 560.9617 303.94516L561.6648 305.16302ZM559.9754 304.42438Q559.2879 303.23358 558.6371 302.88763Q557.992 302.52036 557.2613 302.94223Q556.5441 303.3563 556.5262 304.10638Q556.5139 304.83514 557.16235 305.95828L558.02954 307.4603Q558.71704 308.6511 559.39124 309.03763Q560.0712 309.40283 560.77484 308.99658Q561.46497 308.59814 561.4907 307.86157Q561.51654 307.125 560.866 305.96698L559.9754 304.42438ZM567.727 301.66302Q568.6801 303.31387 568.5805 304.4539Q568.48663 305.57257 567.28235 306.26788Q566.1051 306.94757 565.0836 306.49088Q564.0622 306.03415 563.12885 304.4801L562.4101 303.2352Q561.4648 301.59787 561.56647 300.4927Q561.6739 299.36624 562.8782 298.67093Q564.069 297.98343 565.0826 298.4266Q566.08844 298.85623 567.02386 300.44516L567.727 301.66302ZM566.03754 300.92438Q565.35004 299.73358 564.6993 299.38763Q564.0542 299.02036 563.3235 299.44223Q562.6063 299.8563 562.5883 300.60638Q562.57605 301.33514 563.2245 302.45828L564.0917 303.9603Q564.7792 305.1511 565.4534 305.53763Q566.13336 305.90283 566.83704 305.49658Q567.52716 305.09814 567.5529 304.36157Q567.57874 303.625 566.92816 302.46698L566.03754 300.92438Z" fill-rule="nonzero"/></svg>